<svg version="1.1" xmlns="http://www.w3.org/2000/svg" style="display: block;" viewBox="0 0 2048 2048" width="800" height="800">
<path transform="translate(0,0)" fill="rgb(5,5,5)" d="M 0 0 L 956.176 0 L 1090.38 0 L 2048 0 L 2048 964.283 L 2048 1115.37 L 2048 2048 L 1087.74 2048 L 959.189 2048 L 0 2048 L 0 1088.9 L 0 957.52 L 0 0 z M 1087.74 2048 L 2048 2048 L 2048 1115.37 C 2047.88 1115.73 2047.76 1116.09 2047.65 1116.45 C 2041.09 1137.3 2037.89 1172.59 2034.26 1195.76 C 2028.54 1232.35 2020.38 1269.34 2009.68 1304.8 C 1928.05 1575.45 1751.81 1796.74 1501.45 1929.53 A 1017.2 1017.2 0 0 1 1204.19 2031.74 A 1500.18 1500.18 0 0 1 1130.03 2042.28 C 1116.43 2043.92 1100.83 2044.03 1087.74 2048 z M 0 1088.9 L 0 2048 L 959.189 2048 C 942.531 2043.32 923.716 2042.72 906.561 2040.69 A 1104.11 1104.11 0 0 1 831.654 2029.69 A 1013.26 1013.26 0 0 1 484.127 1894.19 A 1036.83 1036.83 0 0 1 32.316 1285.58 C 21.3853 1243.79 14.1095 1200.35 8.70241 1157.5 C 5.95914 1135.75 5.37702 1111.18 0.303625 1090.09 C 0.20752 1089.69 0.101208 1089.3 0 1088.9 z M 1090.38 0 C 1090.7 0.0994053 1091.03 0.204443 1091.35 0.298216 C 1100.59 2.95343 1111.04 3.23662 1120.63 4.31533 A 2513.12 2513.12 0 0 1 1165.91 9.83843 A 963.218 963.218 0 0 1 1283.04 32.9514 C 1354.76 51.7332 1422.46 78.3526 1488.84 111.212 C 1502.87 118.158 1516.42 125.654 1529.98 133.482 C 1539.2 138.809 1548.62 145.143 1558.42 149.217 C 1569.63 153.877 1583.67 150.038 1595.66 151.223 A 224.296 224.296 0 0 1 1650.09 163.73 C 1736.57 195.351 1795.28 268.407 1846.08 341.49 C 1865.87 369.956 1885.37 398.795 1902.53 428.935 C 1914.12 449.303 1931.87 479.654 1931.07 503.218 C 1930.62 516.536 1924.43 529.483 1928.96 542.795 C 1932.11 552.059 1937.41 561.156 1941.79 569.902 A 769.803 769.803 0 0 1 1960.57 609.386 A 1033.95 1033.95 0 0 1 2015.21 767.241 A 964.393 964.393 0 0 1 2039.29 893.532 A 1223.73 1223.73 0 0 1 2043.75 931.706 C 2044.79 942.326 2045.02 954.035 2048 964.283 L 2048 0 L 1090.38 0 z M 0 0 L 0 957.52 C 4.5002 944.308 6.14961 911.265 8.02618 895.391 A 927.796 927.796 0 0 1 19.2302 824.586 A 1152.29 1152.29 0 0 1 41.8311 732.75 C 45.5596 719.673 52.9247 704.297 54.3286 690.938 C 55.3684 681.042 50.9208 669.87 50.118 659.839 C 48.1371 635.086 51.458 609.712 56.171 585.432 C 62.7917 551.323 76.2121 516.029 91.6061 484.904 C 116.273 435.031 148.084 388.867 180.831 344.055 C 187.705 334.649 193.899 324.61 201.096 315.463 C 206.158 309.028 212.3 303.435 217.637 297.222 C 222.507 291.554 226.761 285.375 231.622 279.698 C 240.035 269.874 249.146 260.565 257.933 251.07 C 265.445 242.952 272.411 234.234 280.09 226.296 C 295.208 210.667 315.003 194.372 333.056 182.399 C 368.37 158.978 423.18 158.199 463.231 166.007 C 472.814 161.417 482.256 154.371 491.345 148.799 A 981.018 981.018 0 0 1 542.74 119.381 A 1001.07 1001.07 0 0 1 799.442 24.6431 A 1066.61 1066.61 0 0 1 893.14 8.182 C 913.45 5.57353 935.037 4.75077 954.97 0.283941 C 955.373 0.193582 955.774 0.094647 956.176 0 L 0 0 z"/>
<path transform="translate(0,0)" fill="rgb(57,137,236)" d="M 1500.01 156.167 C 1513.28 163.255 1526.72 170.643 1539.2 179.066 C 1536.59 193.344 1534.71 207.779 1532.62 222.142 C 1532.06 220.481 1531.55 219.059 1530.59 217.585 C 1523.87 207.36 1520.13 194.626 1514.75 183.618 C 1511.07 176.074 1500.75 164.031 1500.01 156.167 z"/>
<path transform="translate(0,0)" fill="rgb(240,60,38)" d="M 1212.29 943.497 C 1229.38 945.874 1248.47 946.825 1264.94 951.826 C 1276.41 962.035 1301.01 1014.16 1309.31 1029.86 A 8747.09 8747.09 0 0 0 1363.17 1131.12 L 1353.76 1134.51 C 1342.57 1138.05 1331.5 1141.64 1320.56 1145.9 C 1308.57 1129.05 1299.45 1108.27 1289.76 1089.97 L 1239.07 994.107 C 1230.17 977.245 1222 959.907 1212.29 943.497 z"/>
<path transform="translate(0,0)" fill="rgb(240,60,38)" d="M 1575.74 183.532 C 1595.03 185.856 1613.8 188.17 1632.49 193.756 A 1899.79 1899.79 0 0 1 1587.38 423.432 C 1579.78 416.69 1547.82 389.683 1540.42 387.46 C 1539.3 387.123 1536.86 387.475 1535.61 387.481 A 1605.44 1605.44 0 0 0 1562.8 256.722 C 1567.05 232.377 1569.91 207.548 1575.74 183.532 z"/>
<path transform="translate(0,0)" fill="rgb(239,138,98)" d="M 88.3843 599.998 C 100.012 544.175 124.544 491.937 154.688 443.81 C 193.881 381.236 290.006 249.398 353.193 211.93 C 368.517 202.843 385.559 199.29 402.707 195.349 C 389.364 208.805 375.623 220.993 363.733 235.908 C 332.497 275.09 322.773 326.795 315.391 375.132 C 314.965 375.643 314.532 376.149 314.113 376.666 C 312.667 378.449 311.666 380.288 310.572 382.295 C 308.962 385.249 307.3 388.044 305.049 390.566 C 284.932 413.101 101.756 596.19 92.556 600.393 C 91.0258 600.39 89.8672 600.422 88.3843 599.998 z"/>
<path transform="translate(0,0)" fill="rgb(239,138,98)" d="M 1535.61 387.481 C 1536.86 387.475 1539.3 387.123 1540.42 387.46 C 1547.82 389.683 1579.78 416.69 1587.38 423.432 C 1569.88 483.915 1536.62 538.572 1503.44 591.629 A 2474.73 2474.73 0 0 1 1394.16 753.016 C 1377.85 774.818 1360.07 795.328 1343.1 816.59 L 1263.86 916.594 A 1865.04 1865.04 0 0 0 1212.71 909.823 C 1222.95 894.548 1235.77 880.293 1247.28 865.918 L 1313.34 783.147 C 1354.26 731.186 1391.67 675.082 1427.03 619.232 C 1458.85 568.987 1491.18 517.299 1513.56 462.024 C 1523.34 437.883 1529.55 412.753 1535.61 387.481 z"/>
<path transform="translate(0,0)" fill="rgb(57,137,236)" d="M 37.2581 1103.89 C 32.5211 1043.09 32.6714 980.012 39.5222 919.416 L 40.7127 921.044 C 47.974 931.145 54.0259 942.448 61.3004 952.697 C 77.3707 975.336 95.6546 997.102 114.091 1017.84 A 801.127 801.127 0 0 0 374.069 1209.9 C 397.262 1220.75 420.371 1231.35 445.043 1238.45 C 433.253 1253.34 423.649 1269.47 414.545 1286.09 A 1175.33 1175.33 0 0 1 37.2581 1103.89 z"/>
<path transform="translate(0,0)" fill="rgb(240,60,38)" d="M 315.391 375.132 C 301.648 470.703 305.135 566.721 320.149 661.848 C 303.174 662.84 286.285 661.723 269.338 663.889 C 221.82 669.962 172.418 696.235 140.738 732.168 C 131.46 742.691 123.09 754.622 115.244 766.25 C 103.373 735.514 87.0079 684.376 84.4965 651.857 C 83.2046 635.128 84.8083 616.403 88.3843 599.998 C 89.8672 600.422 91.0258 600.39 92.556 600.393 C 101.756 596.19 284.932 413.101 305.049 390.566 C 307.3 388.044 308.962 385.249 310.572 382.295 C 311.666 380.288 312.667 378.449 314.113 376.666 C 314.532 376.149 314.965 375.643 315.391 375.132 z"/>
<path transform="translate(0,0)" fill="rgb(177,0,0)" d="M 320.149 661.848 C 328.279 723.864 352.305 811.164 379.046 867.937 C 362.568 897.896 297.113 972.137 268.258 988.187 C 207.925 941.193 142.478 837.97 115.244 766.25 C 123.09 754.622 131.46 742.691 140.738 732.168 C 172.418 696.235 221.82 669.962 269.338 663.889 C 286.285 661.723 303.174 662.84 320.149 661.848 z"/>
<path transform="translate(0,0)" fill="rgb(250,250,250)" d="M 680.523 1214.42 C 680.874 1214.37 681.224 1214.3 681.577 1214.27 C 734.034 1209.72 789.161 1227.78 830.43 1259.91 A 219.118 219.118 0 0 1 913.613 1408.23 A 219.603 219.603 0 0 1 866.483 1570.02 C 828.278 1617.64 774.313 1644.16 714.248 1650.86 C 656.028 1654.84 599.385 1637.54 554.623 1599.59 A 218.69 218.69 0 0 1 477.901 1450.31 A 220.34 220.34 0 0 1 530.179 1289.75 C 568.293 1245.1 622.226 1218.87 680.523 1214.42 z"/>
<path transform="translate(0,0)" fill="rgb(5,5,5)" d="M 667.671 1298.39 C 668.051 1298.35 668.43 1298.3 668.811 1298.28 A 138.175 138.175 0 0 1 768.011 1329.98 A 140.349 140.349 0 0 1 817.598 1425.28 A 139.099 139.099 0 0 1 784.519 1527.53 C 762.359 1553.17 727.333 1572.63 693.247 1575 C 657.027 1578.33 622.108 1568.92 593.374 1546.29 A 138.276 138.276 0 0 1 540.912 1453.51 A 138.732 138.732 0 0 1 570.766 1349.63 C 595.31 1319.19 629.144 1302.39 667.671 1298.39 z"/>
<path transform="translate(0,0)" fill="rgb(250,250,250)" d="M 669.255 1332.37 C 695.73 1331.17 719.051 1336.08 740.742 1351.98 A 106.158 106.158 0 0 1 782.834 1422.29 C 786.913 1449.2 779.137 1478.22 762.852 1499.91 C 744.749 1524.03 719.942 1536.54 690.531 1540.91 C 662.438 1543.13 636.32 1536.82 613.95 1519.14 A 104.775 104.775 0 0 1 574.777 1448.53 A 106.311 106.311 0 0 1 598.382 1369.84 C 616.279 1348.04 641.345 1335.19 669.255 1332.37 z"/>
<path transform="translate(0,0)" fill="rgb(177,0,0)" d="M 1664.71 208.227 C 1673.13 211.625 1681.93 217.877 1689.57 222.854 C 1756.87 266.717 1808.82 343.258 1850.82 410.124 C 1864.49 431.875 1891.97 472.692 1894.44 497.933 C 1895.59 509.579 1893.27 522.334 1891.85 533.904 C 1889.44 553.566 1886.4 573.016 1881.97 592.335 C 1851.83 723.662 1748.17 860.139 1648.32 948.043 C 1595.9 994.191 1538.08 1033.78 1479.04 1070.87 C 1451.66 1087.92 1423.79 1104.72 1395.06 1119.39 C 1386.02 1099 1373.63 1079.02 1363.24 1059.22 A 9208.15 9208.15 0 0 0 1294.91 930.476 C 1295.87 929.575 1296.81 928.658 1297.76 927.742 C 1306.32 919.467 1313.37 909.671 1320.78 900.371 L 1354.31 858.223 C 1376.6 830.208 1399.54 802.569 1420.95 773.884 A 2640.7 2640.7 0 0 0 1534.74 605.769 C 1562.03 562.088 1590.11 516.235 1608.56 467.949 C 1627.71 417.851 1638.13 362.28 1648.02 309.662 C 1654.32 276.151 1660.83 242.097 1664.71 208.227 z"/>
<path transform="translate(0,0)" fill="rgb(57,137,236)" d="M 1917.82 597.194 C 1931.1 627.32 1944.38 657.409 1955.5 688.419 A 1002.13 1002.13 0 0 1 2011.04 1095.35 C 1999.2 1107.34 1984.55 1117.25 1970.77 1126.88 A 1116.86 1116.86 0 0 1 1885.19 1181.09 A 1211.66 1211.66 0 0 1 1657.81 1282.28 C 1456.58 1347.32 1226.88 1362.71 1016.52 1374.98 C 1007.82 1334.6 993.742 1295.96 971.363 1261.06 C 1057.41 1239.78 1136.92 1202.46 1211.89 1155.74 C 1229.9 1144.52 1252.05 1132.31 1265.3 1115.55 C 1277.85 1139.18 1289.21 1164.48 1303.27 1187.17 A 3726.79 3726.79 0 0 1 1363.13 1167.05 C 1378.65 1161.96 1394.7 1157.3 1409.5 1150.38 C 1442.59 1134.9 1474.43 1113.97 1505.37 1094.53 C 1628.69 1017.05 1726.2 934.622 1811.5 816.155 C 1836.7 781.158 1859.69 745.902 1878.62 707.036 C 1895.48 672.42 1909.5 634.828 1917.82 597.194 z"/>
<path transform="translate(0,0)" fill="rgb(200,199,199)" d="M 1806.87 1471.57 C 1851.5 1446.71 1906.69 1419.49 1944.57 1385.48 C 1931 1423.65 1912.91 1460.58 1893.67 1496.18 A 989.604 989.604 0 0 1 1449.43 1917.06 A 991.265 991.265 0 0 1 690.836 1955.92 A 993.518 993.518 0 0 1 287.807 1685.45 C 275.912 1672.18 242.954 1635.34 235.645 1621.46 C 226.352 1610.78 218.256 1598.21 210.108 1586.64 A 948.171 948.171 0 0 1 108.982 1401.41 A 3078.6 3078.6 0 0 0 291.861 1491.64 A 4327.32 4327.32 0 0 0 361.548 1521.76 C 372.839 1526.53 384.963 1530.64 395.888 1536.1 C 427.633 1614.15 466.499 1666.52 539.787 1710.5 C 601.128 1744.36 668.594 1759.85 738.567 1751.12 C 829.008 1739.84 903.738 1693.52 959.372 1622.13 A 4578.15 4578.15 0 0 0 1237.22 1610.73 C 1345.41 1603.02 1456.8 1593.55 1561.78 1565.28 A 1325.41 1325.41 0 0 0 1757.51 1495.15 C 1774.15 1487.74 1790.31 1479.19 1806.87 1471.57 z"/>
<path transform="translate(0,0)" fill="rgb(250,250,250)" d="M 291.861 1491.64 A 4327.32 4327.32 0 0 0 361.548 1521.76 C 372.839 1526.53 384.963 1530.64 395.888 1536.1 C 427.633 1614.15 466.499 1666.52 539.787 1710.5 C 538.638 1725.47 545.728 1739.92 542.904 1754.69 A 34.2293 34.2293 0 0 1 528.728 1776.22 C 518.354 1783.23 505.023 1782.09 493.301 1779.93 C 421.155 1766.62 332.619 1686.32 292.046 1626.63 C 272.541 1597.93 246.39 1554.89 253.974 1518.87 C 258.873 1495.6 277.969 1501.24 290.975 1492.28 C 291.276 1492.08 291.566 1491.85 291.861 1491.64 z"/>
<path transform="translate(0,0)" fill="rgb(161,160,160)" d="M 1806.87 1471.57 C 1851.5 1446.71 1906.69 1419.49 1944.57 1385.48 C 1931 1423.65 1912.91 1460.58 1893.67 1496.18 A 989.604 989.604 0 0 1 1449.43 1917.06 A 991.265 991.265 0 0 1 690.836 1955.92 A 993.518 993.518 0 0 1 287.807 1685.45 C 275.912 1672.18 242.954 1635.34 235.645 1621.46 L 236.205 1620.45 C 232.83 1609.63 193.495 1564.35 191.502 1555.89 C 190.876 1553.23 191.053 1552.85 192.474 1550.76 C 194.67 1549.74 196.282 1549.22 198.741 1549.53 C 205.682 1550.43 217.301 1557.03 221.469 1562.96 C 223.055 1565.22 222.992 1567.93 224.738 1570.3 C 226.761 1573.05 229.564 1575.6 230.918 1578.77 C 233.011 1583.66 233.654 1589.08 236.256 1593.81 C 238.883 1598.58 242.56 1602.93 245.968 1607.15 C 250.024 1612.17 254.128 1617.08 258.925 1621.41 C 264.704 1626.62 272.032 1631.57 276.689 1637.81 C 284.247 1647.94 295.403 1655.19 304.397 1664.01 C 310.527 1670.03 316.196 1676.51 322.427 1682.43 C 332.167 1691.67 343.07 1700.11 353.362 1708.76 C 367.096 1720.31 380.705 1732.46 395.485 1742.65 C 414.528 1755.78 435.966 1764.81 455.243 1777.53 C 464.769 1783.81 474.926 1791.13 483.037 1799.17 C 488.342 1804.43 493.032 1810.23 498.465 1815.47 C 496.384 1815.72 484.981 1809.07 482.231 1807.72 C 439.119 1786.57 397.815 1757.81 360.39 1727.93 C 351.605 1720.91 342.542 1714.04 334.124 1706.59 C 328.729 1701.82 323.73 1696.06 317.734 1692.05 C 315.608 1690.63 315.389 1690.15 312.798 1690.7 C 329.744 1703.78 345.68 1718.21 362.556 1731.43 A 766.622 766.622 0 0 0 483.574 1810.14 C 530.839 1834.77 578.172 1857.28 628.421 1875.25 A 1035.04 1035.04 0 0 0 1284 1886.67 A 969.258 969.258 0 0 0 1746.36 1570.52 C 1771.69 1539.48 1798.9 1505.94 1817.45 1470.29 L 1817.24 1469.4 L 1817.84 1468.9 C 1814.32 1468.45 1812.39 1471.31 1806.87 1471.57 z"/>
<path transform="translate(0,0)" fill="rgb(129,184,239)" d="M 269.322 1025.63 C 276.503 1023.22 283.933 1021.08 290.357 1016.97 C 322.632 996.309 388.525 923.497 407.23 890.177 C 410.838 883.749 413.49 877.586 413.205 870.077 C 412.388 848.564 399.068 823.543 392.046 803.057 C 386.197 785.991 381.114 768.569 376.296 751.188 C 341.816 626.803 329.058 474.054 355.862 347.009 C 360.582 324.642 365.995 298.322 377.423 278.458 C 387.318 261.257 412.207 244.963 427.939 233.115 A 985.518 985.518 0 0 1 760.637 69.3054 C 1002.91 2.68064 1280.66 31.5755 1500.01 156.167 C 1500.75 164.031 1511.07 176.074 1514.75 183.618 C 1520.13 194.626 1523.87 207.36 1530.59 217.585 C 1531.55 219.059 1532.06 220.481 1532.62 222.142 A 2435.9 2435.9 0 0 1 1513.85 327.63 C 1506.34 366.233 1498.5 404.17 1485.23 441.309 C 1468.44 488.343 1440.37 533.517 1414.06 575.731 C 1376.22 636.455 1336.7 696.943 1293.2 753.798 C 1279.22 772.074 1264.23 789.477 1249.76 807.348 C 1237.62 822.347 1226.2 837.979 1214.13 853.064 C 1195.65 876.171 1176.46 898.92 1158.66 922.552 C 1166.21 935.676 1175.72 947.454 1183.2 960.529 C 1196.68 984.118 1208.96 1008.52 1221.62 1032.57 C 1236.17 1060.22 1251.06 1087.73 1265.3 1115.55 C 1252.05 1132.31 1229.9 1144.52 1211.89 1155.74 C 1136.92 1202.46 1057.41 1239.78 971.363 1261.06 C 951.897 1231.61 930.386 1205.93 902.863 1183.59 A 324.013 324.013 0 0 0 667.849 1113.12 C 575.423 1122.75 502.958 1167.08 445.043 1238.45 C 420.371 1231.35 397.262 1220.75 374.069 1209.9 A 801.127 801.127 0 0 1 114.091 1017.84 C 95.6546 997.102 77.3707 975.336 61.3004 952.697 C 54.0259 942.448 47.974 931.145 40.7127 921.044 L 39.5222 919.416 C 43.1729 879.949 50.4239 840.58 59.2422 801.963 C 63.0367 785.347 67.8424 768.993 71.4154 752.327 C 83.5794 778.663 91.9224 806.463 105.323 832.386 C 130.73 881.536 196.231 979.881 241.106 1012.29 C 249.987 1018.7 258.936 1022.31 269.322 1025.63 z"/>
<path transform="translate(0,0)" fill="rgb(184,209,241)" d="M 549.062 757.712 C 542.124 757.748 538.391 752.616 532.117 751.008 C 533.058 752.878 533.651 753.742 533.658 755.877 C 532.311 755.763 531.895 755.791 530.446 755.297 C 522.009 752.419 512.953 745.613 505.965 740.186 C 479.93 719.963 457.82 695.66 445.707 664.53 C 425.007 611.328 425.863 545.02 448.665 492.524 C 448.108 500.455 444.211 507.465 443.395 515.373 C 444.151 516.957 444.326 517.524 444.092 519.339 C 443.821 521.436 443.499 520.186 444.691 522.183 L 446.244 522.071 C 450.961 515.935 451.995 503.754 455.233 496.304 A 370.153 370.153 0 0 1 480.312 447.623 C 484.375 440.869 497.692 428.245 498.364 422.371 C 490.729 423.294 489.514 434.58 481.943 436.527 L 480.652 435.249 C 481.386 431.611 484.56 429.856 486.553 426.907 C 488.005 424.758 489.359 422.709 491.063 420.734 C 493.699 417.679 501.053 408.584 504.607 408.306 L 504.531 411.298 L 504.744 411.033 C 505.692 412.543 505.563 412.673 507.259 413.538 C 516.852 404.087 528.367 391.03 541.182 386.253 C 530.903 396.158 519.594 404.658 509.769 415.126 C 467.966 459.664 442.096 518.821 440.904 580.212 C 439.942 629.715 461.355 682.836 495.856 718.299 C 511.393 734.27 530.012 746.406 549.062 757.712 z"/>
<path transform="translate(0,0)" fill="rgb(250,250,250)" d="M 541.182 386.253 C 548.826 381.495 555.698 375.733 563.539 371.247 C 608.96 345.261 662.189 331.693 714.136 343.573 C 761.974 354.513 807.488 381.011 833.808 423.348 C 863.01 470.32 873.61 526.593 860.685 580.573 A 253.646 253.646 0 0 1 745 740.785 C 696.694 769.992 641.879 785.564 585.732 771.686 C 572.968 768.531 560.784 763.624 549.062 757.712 C 530.012 746.406 511.393 734.27 495.856 718.299 C 461.355 682.836 439.942 629.715 440.904 580.212 C 442.096 518.821 467.966 459.664 509.769 415.126 C 519.594 404.658 530.903 396.158 541.182 386.253 z"/>
</svg>