<svg version="1.1" xmlns="http://www.w3.org/2000/svg" style="display: block;" viewBox="0 0 2048 2048" width="800" height="800">
<defs>
	<linearGradient id="Gradient1" gradientUnits="userSpaceOnUse" x1="459.32" y1="792.251" x2="293.526" y2="231.611">
		<stop class="stop0" offset="0" stop-opacity="1" stop-color="rgb(206,0,130)"/>
		<stop class="stop1" offset="1" stop-opacity="1" stop-color="rgb(254,0,153)"/>
	</linearGradient>
	<linearGradient id="Gradient2" gradientUnits="userSpaceOnUse" x1="1182.69" y1="2004.25" x2="951.303" y2="1172.72">
		<stop class="stop0" offset="0" stop-opacity="1" stop-color="rgb(174,173,173)"/>
		<stop class="stop1" offset="1" stop-opacity="1" stop-color="rgb(224,223,222)"/>
	</linearGradient>
</defs>
<path transform="translate(0,0)" fill="rgb(6,6,6)" d="M 0 0 L 955.592 0 L 1089.84 0 L 2048 0 L 2048 964.515 L 2048 1115.36 L 2048 2048 L 1087.77 2048 L 959.189 2048 L 0 2048 L 0 1089.45 L 0 955.488 L 0 0 z M 1087.77 2048 L 2048 2048 L 2048 1115.36 C 2047.88 1115.72 2047.76 1116.08 2047.65 1116.44 C 2041.08 1137.38 2037.9 1172.53 2034.27 1195.76 C 2028.55 1232.34 2020.37 1269.34 2009.68 1304.8 C 1928.34 1574.72 1752.45 1795.95 1502.99 1928.71 A 1017.5 1017.5 0 0 1 1205.51 2031.51 A 1459.34 1459.34 0 0 1 1130.57 2042.21 C 1116.86 2043.87 1100.97 2043.96 1087.77 2048 z M 0 1089.45 L 0 2048 L 959.189 2048 C 942.879 2043.41 924.54 2042.82 907.749 2040.84 A 1101.01 1101.01 0 0 1 834.202 2030.15 A 1012.71 1012.71 0 0 1 495.649 1901.26 A 1036.96 1036.96 0 0 1 32.7592 1287.3 C 21.6524 1245.51 14.311 1201.94 8.90765 1159.04 C 6.44043 1139.46 4.88169 1108.29 0.304514 1090.56 C 0.208444 1090.19 0.101505 1089.82 0 1089.45 z M 1089.84 0 C 1090.19 0.0989437 1090.54 0.203294 1090.9 0.296831 C 1101.09 3.00054 1112.37 3.34965 1122.89 4.52958 A 2436.4 2436.4 0 0 1 1171.53 10.5789 A 1012.47 1012.47 0 0 1 1311.93 40.8737 A 1003.59 1003.59 0 0 1 1467.83 100.792 A 1039.31 1039.31 0 0 1 1507.59 121.065 C 1518.51 127.006 1529.56 134.232 1541.18 138.563 C 1552.14 142.651 1566.99 141.605 1578.79 143.324 C 1595.2 145.717 1611.75 149.664 1627.64 154.427 C 1738.31 187.601 1829.22 271.505 1887.38 369.501 C 1920.63 425.537 1945.6 488.49 1957.41 552.679 A 780.245 780.245 0 0 1 1963.5 592.713 C 1964.96 604.35 1965.77 616.263 1969.02 627.568 C 1974.72 647.374 1984.13 666.414 1990.77 685.99 A 1067.85 1067.85 0 0 1 2029.28 829.155 A 1158.51 1158.51 0 0 1 2041.46 911.109 C 2043.36 928.202 2043.33 948.064 2048 964.515 L 2048 0 L 1089.84 0 z M 0 0 L 0 955.488 C 4.98703 940.677 5.31137 919.43 7.14527 903.666 A 916.946 916.946 0 0 1 17.043 836.176 A 1068.18 1068.18 0 0 1 44.72 723.024 C 50.0486 705.52 57.5667 688.18 61.838 670.428 C 64.669 658.662 63.4825 646.887 64.1945 634.938 C 64.9027 623.054 66.6125 611.034 68.3644 599.26 C 79.4278 524.904 109.129 452.711 148.479 388.986 C 208.626 291.583 300.659 197.938 411.201 160.225 A 352.672 352.672 0 0 1 468.219 146.282 C 479.21 144.553 491.454 145.412 501.902 141.354 C 511.185 137.748 519.901 132.16 528.593 127.3 A 758.868 758.868 0 0 1 567.933 106.317 A 1044.62 1044.62 0 0 1 727.669 43.098 A 1054.46 1054.46 0 0 1 876.765 10.4433 C 899.697 7.11908 933.121 5.5059 954.472 0.288593 C 954.847 0.197095 955.219 0.0961978 955.592 0 L 0 0 z"/>
<path transform="translate(0,0)" fill="rgb(149,148,148)" d="M 1816.92 1466.26 C 1829.53 1458.34 1843.18 1451.77 1856.18 1444.48 C 1886.46 1427.5 1918.41 1408.26 1944.66 1385.38 C 1931.01 1424.33 1912.24 1462.14 1892.55 1498.35 A 989.799 989.799 0 0 1 1454.02 1914.92 A 991.279 991.279 0 0 1 694.371 1957.22 A 993.995 993.995 0 0 1 292.963 1691.24 C 278.125 1675 247.016 1640.85 237.089 1623.2 C 257.598 1631.59 275.973 1668.83 290.92 1685.41 A 989.011 989.011 0 0 0 382.912 1774.89 A 983.676 983.676 0 0 0 633.214 1930.93 A 988.425 988.425 0 0 0 1385.12 1942.84 A 990.117 990.117 0 0 0 1873.62 1526.95 C 1891.51 1496.5 1910.32 1463.61 1923.77 1430.94 C 1924.7 1428.66 1925.7 1427.22 1924.72 1424.92 C 1917.36 1422.28 1917.3 1415.7 1911.75 1413.75 C 1897.57 1419.63 1875.43 1435.89 1861.17 1444.39 C 1848.4 1452 1834.86 1458.63 1821.86 1465.91 L 1822.21 1465.61 C 1820.52 1469.74 1818.71 1475.66 1815.17 1478.4 C 1816.95 1473.92 1818.82 1470.9 1816.92 1466.26 z"/>
<path transform="translate(0,0)" fill="rgb(102,0,175)" d="M 39.4912 923.041 C 40.6263 923.446 41.9025 923.576 42.8965 924.258 C 46.7931 926.931 54.0868 941.431 56.9512 945.984 C 63.795 956.864 71.7522 967.065 79.571 977.252 A 736.297 736.297 0 0 0 186.975 1090 C 195.753 1097.52 205.103 1106.48 215.049 1112.44 C 271.979 1158.07 337.443 1195.65 404.656 1223.85 C 417.859 1229.39 431.54 1233.19 444.753 1238.43 C 433.53 1253.6 422.571 1269.41 414.589 1286.55 C 377.119 1275.67 340.344 1264.25 303.939 1250.06 C 233.259 1222.51 165.477 1186.07 101.363 1145.62 C 80.3421 1132.36 58.0955 1119.46 38.506 1104.17 C 35.1978 1088.67 35.3344 1071 34.9722 1055.17 A 1037.18 1037.18 0 0 1 39.4912 923.041 z"/>
<path transform="translate(0,0)" fill="rgb(173,0,122)" d="M 1639.28 195.171 C 1741.75 230.285 1830.76 328.383 1877.44 423.533 C 1932.67 536.134 1952.44 671.071 1911.12 791.49 C 1885.91 864.965 1836.68 926.475 1766.1 960.82 C 1703.45 991.311 1630.41 991.707 1565.29 968.993 C 1547.42 962.761 1526.52 955.055 1510.63 944.909 C 1517.98 936.796 1541.26 931.234 1551.92 925.546 C 1610.88 894.078 1655.7 845.666 1688.28 787.882 C 1770.2 642.56 1766.06 445.471 1698.35 295.562 C 1687.17 270.81 1674.06 247.942 1659.09 225.293 C 1654.73 218.693 1641.07 203.418 1639.63 197.021 C 1639.49 196.409 1639.4 195.788 1639.28 195.171 z"/>
<path transform="translate(0,0)" fill="rgb(245,245,244)" d="M 679.688 1214.43 C 679.938 1214.39 680.186 1214.34 680.437 1214.32 C 733.382 1209.85 788.462 1227.13 830.183 1259.68 A 219.536 219.536 0 0 1 913.609 1407.98 A 219.268 219.268 0 0 1 867.051 1569.32 C 828.751 1617.43 774.783 1643.91 714.369 1650.89 C 656.767 1654.56 601.404 1638.26 556.612 1601.25 A 218.718 218.718 0 0 1 477.99 1451.51 A 220.574 220.574 0 0 1 529.96 1289.97 A 216.785 216.785 0 0 1 679.688 1214.43 z"/>
<path transform="translate(0,0)" fill="rgb(6,6,6)" d="M 667.274 1298.37 C 667.685 1298.33 668.095 1298.28 668.507 1298.25 A 138.639 138.639 0 0 1 768.475 1330.37 A 140.253 140.253 0 0 1 817.562 1424.95 A 139.025 139.025 0 0 1 784.514 1527.53 C 762.36 1553.15 727.324 1572.65 693.246 1574.99 C 657.04 1578.35 622.096 1568.9 593.375 1546.29 A 138.275 138.275 0 0 1 540.976 1454.01 A 138.741 138.741 0 0 1 570.139 1350.45 C 594.73 1319.55 628.462 1302.8 667.274 1298.37 z"/>
<path transform="translate(0,0)" fill="rgb(245,245,244)" d="M 668.914 1332.38 C 694.628 1330.36 719.129 1336.38 740.145 1351.54 A 106.234 106.234 0 0 1 782.846 1422.29 C 786.942 1449.19 779.124 1478.23 762.854 1499.91 C 744.743 1524.05 719.927 1536.54 690.503 1540.91 C 662.699 1543.18 636.784 1536.89 614.538 1519.6 A 104.773 104.773 0 0 1 574.89 1449.52 A 106.224 106.224 0 0 1 597.886 1370.45 C 615.747 1348.39 640.831 1335.34 668.914 1332.38 z"/>
<path transform="translate(0,0)" fill="url(#Gradient1)" d="M 439.746 187.031 C 482.225 174.844 534.878 173.578 574.519 195.7 C 607.559 214.139 628.44 243.868 642.112 278.508 C 674.269 374.523 647.391 480.788 603.524 568.815 C 547.661 680.913 445.044 793.977 323.722 834.619 C 277.865 849.981 229.826 853.569 185.582 831.485 C 147.919 812.685 123.595 781.852 110.433 742.137 C 105.8 728.157 103.362 714.361 101.677 699.799 C 100.527 693.914 99.4212 687.966 98.6989 682.013 C 95.8799 658.776 98.0979 634.673 101.559 611.602 C 112.316 539.898 138.506 473.85 175.417 411.727 C 182.779 399.337 189.891 386.458 198.702 375.04 C 224.912 340.57 250.257 308.476 282.869 279.696 C 306.195 253.228 390.94 200.648 426.929 191.339 C 431.042 189.567 435.475 188.38 439.746 187.031 z"/>
<path transform="translate(0,0)" fill="rgb(239,0,146)" d="M 439.746 187.031 C 482.225 174.844 534.878 173.578 574.519 195.7 C 607.559 214.139 628.44 243.868 642.112 278.508 C 641.498 279.68 641.341 280.108 640.426 281.207 C 638.853 283.096 636.59 284.012 634.207 284.068 C 632.233 282.929 630.625 282.003 628.342 281.597 C 625.841 281.153 623.464 280.743 621.107 279.73 C 605.153 272.872 598.207 252.702 589.346 239.233 C 586.722 235.245 582.711 231.713 580.63 227.449 C 578.852 223.806 579.061 218.563 576.661 215.339 C 574.444 212.359 570.44 210.391 569.127 206.823 C 567.975 203.693 568.34 199.726 566.796 196.769 C 558.446 180.781 490.928 179.661 473.353 181.701 C 464.016 182.784 448.175 189.816 439.746 187.031 z"/>
<path transform="translate(0,0)" fill="rgb(239,0,146)" d="M 282.869 279.696 C 306.195 253.228 390.94 200.648 426.929 191.339 L 426.658 193.291 C 423.16 195.791 417.256 197.945 415.589 201.898 L 416.133 202.804 L 417.515 202.192 C 421.341 204.571 424.485 207.118 427.746 210.221 C 426.455 211.256 425.521 211.819 424.066 212.536 C 425.836 217.612 432.446 221.984 436.909 224.534 C 439.529 226.03 441.554 226.768 442.932 229.462 C 437.927 236.346 406.83 233.965 401.996 247.456 C 404.086 255.841 411.43 263.408 414.613 271.576 C 416.77 277.112 417.191 284.078 418.473 289.952 C 420.818 300.692 423.531 311.89 426.689 322.381 C 430.48 334.977 422.268 347.128 425.283 359.616 C 425.696 361.327 425.8 363.174 425.921 364.926 L 427.168 362.192 C 428.594 362.442 428.701 362.112 429.387 363.23 C 434.569 371.681 424.514 374.334 436.993 382.099 C 438.636 386.511 437.673 391.052 439.032 395.548 C 442.211 406.064 430.73 425.524 425.861 434.494 C 419.968 445.354 412.375 454.935 404.852 464.684 C 382.264 493.954 373.748 504.053 340.212 520.205 C 332.03 524.145 323.202 528.67 314.487 531.208 C 297.358 536.197 264.438 534.637 247.677 528.978 C 245.135 528.12 242.5 530.025 239.995 530.75 C 226.274 534.721 206.66 526.946 195.233 519.67 C 192.057 517.649 190.36 515.76 186.362 515.379 C 183.916 516.399 182.424 517.126 181.201 519.628 C 180.279 521.515 180.013 523.935 179.534 525.962 C 178.103 532.014 170.889 537.098 168.636 543.111 C 166.122 549.822 166.416 557.847 164.155 564.77 C 158.519 582.025 153.374 599.847 147.316 616.925 C 143.586 627.441 137.67 638.621 135.365 649.442 C 133.419 658.573 133.248 669.052 133.018 678.383 C 132.971 680.276 133.292 679.472 132.426 680.67 C 131.066 682.553 130.048 683.711 130.117 686.153 L 131.39 687.522 C 131.475 687.22 131.554 686.916 131.643 686.616 C 131.998 685.429 132.456 684.351 132.956 683.222 C 139.268 690.899 134.522 701.851 147.113 713.88 C 155.026 721.44 165.541 723.403 174.718 728.792 C 179.637 731.681 183.316 735.782 187.901 738.996 C 192.523 742.236 197.236 743.828 198.385 750.016 C 196.674 752.586 194.216 752.011 193.268 754.842 L 194.585 755.106 C 207.086 757.708 219.395 763.318 232.462 762.871 L 232.902 763.731 C 225.371 767.28 184.254 752.983 175.921 750.032 C 149.437 740.656 127.184 722.496 107.496 702.989 C 105.531 701.042 104.553 700.266 101.677 699.799 C 100.527 693.914 99.4212 687.966 98.6989 682.013 C 95.8799 658.776 98.0979 634.673 101.559 611.602 C 112.316 539.898 138.506 473.85 175.417 411.727 C 182.779 399.337 189.891 386.458 198.702 375.04 C 200.713 383.679 193.593 398.561 191.969 407.698 A 83.2202 83.2202 0 0 0 191.569 433.808 C 194.639 455.762 205.266 479.239 223.444 492.578 A 90.3038 90.3038 0 0 0 291.716 508.805 C 330.115 502.571 364.801 476.931 387.207 445.973 C 408.343 416.77 424.103 377.836 417.979 341.253 C 414.156 318.41 402.272 295.388 383.006 281.907 C 362.601 267.628 335.678 261.689 311.824 269.952 C 303.233 272.928 293.716 278.092 284.808 279.437 C 284.163 279.534 283.516 279.61 282.869 279.696 z"/>
<path transform="translate(0,0)" fill="rgb(245,245,244)" d="M 282.869 279.696 C 283.516 279.61 284.163 279.534 284.808 279.437 C 293.716 278.092 303.233 272.928 311.824 269.952 C 335.678 261.689 362.601 267.628 383.006 281.907 C 402.272 295.388 414.156 318.41 417.979 341.253 C 424.103 377.836 408.343 416.77 387.207 445.973 C 364.801 476.931 330.115 502.571 291.716 508.805 A 90.3038 90.3038 0 0 1 223.444 492.578 C 205.266 479.239 194.639 455.762 191.569 433.808 A 83.2202 83.2202 0 0 1 191.969 407.698 C 193.593 398.561 200.713 383.679 198.702 375.04 C 224.912 340.57 250.257 308.476 282.869 279.696 z"/>
<path transform="translate(0,0)" fill="rgb(102,0,175)" d="M 1963.64 717.291 C 1971.71 735.603 1976.63 755.328 1981.66 774.652 A 993.777 993.777 0 0 1 2013.18 1029.3 C 2013.14 1050.83 2013.16 1072.8 2010.86 1094.22 C 2002.14 1107.66 1966.21 1130.64 1952.02 1140.17 A 1213.83 1213.83 0 0 1 1525.77 1318.19 C 1401.99 1344.5 1274.67 1358.62 1148.54 1367.57 C 1105.14 1370.65 1060.59 1375.19 1017.08 1374.37 C 1007.62 1333.67 992.735 1297.37 971.638 1261.32 C 983.317 1256.62 996.62 1254.18 1008.74 1250.52 C 1031.58 1243.63 1054.46 1235.65 1076.5 1226.5 C 1218.19 1167.7 1350.97 1067.05 1437.53 939.547 C 1516.81 997.033 1608.42 1029.49 1707.12 1013.81 C 1784.16 1001.58 1851.58 956.09 1896.85 893.349 A 375.874 375.874 0 0 0 1958.25 753.875 C 1960.79 741.663 1961.71 729.54 1963.64 717.291 z"/>
<path transform="translate(0,0)" fill="rgb(239,0,146)" d="M 1510.63 944.909 C 1413.18 892.353 1342.05 805.335 1299.51 704.008 C 1252.43 591.86 1241.71 462.064 1288.45 347.942 C 1316.79 278.722 1367.64 221.39 1437.55 192.385 C 1500.29 166.355 1576.96 169.647 1639.28 195.171 C 1639.4 195.788 1639.49 196.409 1639.63 197.021 C 1641.07 203.418 1654.73 218.693 1659.09 225.293 C 1674.06 247.942 1687.17 270.81 1698.35 295.562 C 1766.06 445.471 1770.2 642.56 1688.28 787.882 C 1655.7 845.666 1610.88 894.078 1551.92 925.546 C 1541.26 931.234 1517.98 936.796 1510.63 944.909 z"/>
<path transform="translate(0,0)" fill="rgb(245,245,244)" d="M 1421.25 313.996 C 1455.51 310.226 1485.79 318.137 1512.94 339.778 C 1545.83 366 1564.92 404.971 1569.4 446.447 A 160.322 160.322 0 0 1 1535.2 562.717 C 1514.06 588.771 1485.19 607.571 1451.32 611.051 C 1420.55 614.213 1387.61 602.733 1363.95 583.153 C 1332.92 557.476 1312.77 516.995 1309.28 476.967 C 1306.2 441.561 1315.29 407.654 1332.49 376.874 C 1359.25 342.009 1377.5 325.048 1421.25 313.996 z"/>
<path transform="translate(0,0)" fill="url(#Gradient2)" d="M 109.283 1401.81 C 130.01 1412.12 150.346 1423.38 171.026 1433.84 A 3230.62 3230.62 0 0 0 295.431 1493.3 L 357.808 1520.19 C 370.432 1525.49 383.496 1530.25 395.874 1536.07 C 427.664 1614.19 466.602 1666.68 539.986 1710.61 C 601.351 1744.25 668.128 1759.76 738.069 1751.16 C 828.821 1740 903.485 1693.62 959.378 1622.13 A 4562.07 4562.07 0 0 0 1238.29 1610.63 C 1341.54 1603.24 1447.35 1594.19 1547.9 1568.87 A 1295.56 1295.56 0 0 0 1816.92 1466.26 C 1818.82 1470.9 1816.95 1473.92 1815.17 1478.4 C 1818.71 1475.66 1820.52 1469.74 1822.21 1465.61 L 1821.86 1465.91 C 1834.86 1458.63 1848.4 1452 1861.17 1444.39 C 1875.43 1435.89 1897.57 1419.63 1911.75 1413.75 C 1917.3 1415.7 1917.36 1422.28 1924.72 1424.92 C 1925.7 1427.22 1924.7 1428.66 1923.77 1430.94 C 1910.32 1463.61 1891.51 1496.5 1873.62 1526.95 A 990.117 990.117 0 0 1 1385.12 1942.84 A 988.425 988.425 0 0 1 633.214 1930.93 A 983.676 983.676 0 0 1 382.912 1774.89 A 989.011 989.011 0 0 1 290.92 1685.41 C 275.973 1668.83 257.598 1631.59 237.089 1623.2 C 230.838 1618.36 223.305 1604.96 218.414 1598.12 A 936.584 936.584 0 0 1 109.283 1401.81 z"/>
<path transform="translate(0,0)" fill="rgb(245,245,244)" d="M 295.431 1493.3 L 357.808 1520.19 C 370.432 1525.49 383.496 1530.25 395.874 1536.07 C 427.664 1614.19 466.602 1666.68 539.986 1710.61 C 539.083 1726.79 547.14 1743.79 541.708 1759.45 C 538.923 1767.48 532.737 1774.58 525.073 1778.29 C 510.423 1785.36 490.109 1780.32 475.479 1775.28 C 392.914 1746.86 305.477 1662.72 267.701 1584.71 C 258.566 1565.84 247.76 1536.67 255.511 1515.78 C 263.641 1493.86 278.431 1501.43 294.327 1493.85 C 294.699 1493.68 295.063 1493.48 295.431 1493.3 z"/>
<path transform="translate(0,0)" fill="rgb(153,86,205)" d="M 556.572 150.813 A 995.196 995.196 0 0 1 1318.6 78.951 C 1374 96.2596 1425.84 118.682 1478.1 143.74 C 1462.64 147.742 1447.18 151.608 1432.23 157.311 A 304.566 304.566 0 0 0 1279.47 288.416 C 1218.58 391.712 1211.32 523.214 1241.06 637.596 C 1264.2 726.613 1309.33 813.562 1372.47 880.829 C 1392.63 902.305 1414.58 921.146 1437.53 939.547 C 1350.97 1067.05 1218.19 1167.7 1076.5 1226.5 C 1054.46 1235.65 1031.58 1243.63 1008.74 1250.52 C 996.62 1254.18 983.317 1256.62 971.638 1261.32 C 952.646 1232.51 931.092 1206.71 904.488 1184.64 C 841.832 1132.65 754.373 1104.94 673.165 1112.79 C 577.498 1122.04 505.256 1165.47 444.753 1238.43 C 431.54 1233.19 417.859 1229.39 404.656 1223.85 C 337.443 1195.65 271.979 1158.07 215.049 1112.44 C 205.103 1106.48 195.753 1097.52 186.975 1090 A 736.297 736.297 0 0 1 79.571 977.252 C 71.7522 967.065 63.795 956.864 56.9512 945.984 C 54.0868 941.431 46.7931 926.931 42.8965 924.258 C 41.9025 923.576 40.6263 923.446 39.4912 923.041 L 40.6006 912.352 A 979.086 979.086 0 0 1 74.1588 744.995 C 89.8318 793.806 120.509 837.011 166.773 860.914 C 218.476 887.627 280.329 883.968 334.309 866.639 C 464.188 824.943 571.592 706.037 632.11 587.585 C 679.185 495.445 709.924 376.933 677.17 275.494 C 661.264 226.233 631.979 186.24 585.281 162.528 A 184.805 184.805 0 0 0 556.572 150.813 z"/>
<path transform="translate(0,0)" fill="rgb(135,60,191)" d="M 39.4912 923.041 L 40.6006 912.352 C 41.7818 921.757 79.5883 975.01 87.7574 982.699 C 83.9054 976.57 80.2231 970.5 77.0019 964.014 C 82.2782 968.86 86.464 976.367 90.9339 982.06 C 95.8869 988.368 101.562 994.081 106.672 1000.26 C 112.521 1007.33 117.671 1015.07 123.855 1021.85 C 144.764 1044.78 167.665 1066.48 189.266 1088.81 C 197.143 1096.96 209.622 1102.28 215.049 1112.44 C 205.103 1106.48 195.753 1097.52 186.975 1090 A 736.297 736.297 0 0 1 79.571 977.252 C 71.7522 967.065 63.795 956.864 56.9512 945.984 C 54.0868 941.431 46.7931 926.931 42.8965 924.258 C 41.9025 923.576 40.6263 923.446 39.4912 923.041 z"/>
<path transform="translate(0,0)" fill="rgb(245,245,244)" d="M 684.551 636.742 C 691.342 644.078 759.667 832.286 770.501 859.293 C 787.502 840.247 802.433 818.305 817.915 797.974 C 851.691 753.621 884.978 708.826 919.295 664.896 C 923.783 677.963 926.149 692.26 929.413 705.733 L 949.412 788.395 C 971.976 881.647 993.742 975.225 1017.42 1068.19 C 979.67 1067.85 940.874 1066.77 903.233 1063.67 C 898.26 1050.38 895.045 1035.91 891.185 1022.22 A 8085.17 8085.17 0 0 1 867.393 935.744 L 859.823 911.266 C 847.789 924.433 836.67 938.7 825.269 952.433 L 762.379 1027.87 C 752.561 1039.55 743.186 1052.51 732.586 1063.41 C 718.991 1029.42 706.592 994.801 693.785 960.498 C 685.578 938.519 676.543 916.743 669.001 894.534 C 656.757 910.076 647.314 930.156 637.353 947.392 C 622.161 973.679 606.095 999.622 591.613 1026.29 C 557.866 1021.2 523.249 1020.53 489.302 1016.58 C 511.51 979.905 529.582 939.698 549.017 901.444 L 628.485 745.734 C 647 709.349 664.993 672.575 684.551 636.742 z"/>
</svg>