<svg version="1.1" xmlns="http://www.w3.org/2000/svg" style="display: block;" viewBox="0 0 2048 2048" width="767" height="767">
<path transform="translate(0,0)" fill="rgb(36,33,34)" d="M 995.461 56.5477 A 952.126 952.126 0 0 1 1670.33 306.745 A 953.687 953.687 0 0 1 1980.28 969.635 C 1980.98 984.845 1980.83 1000.03 1981.15 1015.25 C 1981.84 1047.95 1982.32 1079.99 1979.09 1112.62 C 1975.28 1151.11 1966.82 1188.09 1957.9 1225.62 C 1917.66 1394.83 1841.97 1538.37 1724.4 1666.69 A 955.199 955.199 0 0 1 1232.49 1947.86 C 1173.48 1960.81 1114.24 1967.36 1053.95 1970.02 C 995.477 1970.93 937.706 1968.11 879.839 1959.41 A 952.126 952.126 0 0 1 367.212 1707.65 C 176.409 1526.28 73.9248 1283.23 67.4441 1021.06 C 66.8411 996.665 69.7588 969.577 71.4796 945.1 A 953.902 953.902 0 0 1 331.341 354.306 A 951.995 951.995 0 0 1 995.461 56.5477 z"/>
<path transform="translate(0,0)" fill="rgb(56,56,56)" d="M 92.0066 1003.52 C 115.522 994.473 138.67 984.333 162.202 975.235 C 166.189 1021.43 184.854 1062.65 220.646 1092.84 C 241.786 1110.68 266.304 1121.38 292.814 1128.41 C 231.308 1149.45 168.451 1168.53 108.549 1193.87 A 587.098 587.098 0 0 1 92.0066 1003.52 z"/>
<path transform="translate(0,0)" fill="rgb(162,160,160)" d="M 115.125 1210.28 A 2811.94 2811.94 0 0 1 410.815 1112.46 C 423.638 1157.08 437.084 1200.68 455.635 1243.34 A 829.549 829.549 0 0 0 807.22 1634.14 A 834.541 834.541 0 0 0 1447.12 1710.06 A 829.589 829.589 0 0 0 1740.56 1557.63 A 841.296 841.296 0 0 0 1775.49 1528.01 C 1787.31 1517.48 1805.48 1497.9 1819.04 1491.64 C 1815.95 1498.92 1811.29 1505.76 1807.03 1512.43 A 928.994 928.994 0 0 1 1220.95 1918.86 A 933.292 933.292 0 0 1 520.728 1791.66 A 931.626 931.626 0 0 1 115.125 1210.28 z"/>
<path transform="translate(0,0)" fill="rgb(89,89,89)" d="M 952.168 802.07 C 958.307 787.495 964.276 772.903 971.894 759.019 A 312.539 312.539 0 0 1 1126.17 619.954 A 310.894 310.894 0 0 1 1364.94 620.714 A 312.799 312.799 0 0 1 1532.42 790.811 C 1540.36 810.584 1545.87 830.764 1550.13 851.626 C 1588.25 859.398 1626.16 867.935 1663.39 879.357 C 1738.6 902.437 1810.41 934.418 1882.43 965.787 C 1908.21 977.018 1934.78 986.784 1960.36 998.415 C 1964.27 1064.71 1961.04 1127.75 1945.3 1192.45 C 1845.17 1150.65 1732.89 1113.76 1627.68 1086.76 C 1590.35 1077.18 1552.2 1067.57 1514.18 1061.23 A 310.498 310.498 0 0 1 1327.73 1206.94 A 310.36 310.36 0 0 1 1091.01 1177.43 C 1026.64 1140.53 979.767 1083.41 953.054 1014.47 A 2330.89 2330.89 0 0 0 464.552 1079.39 C 406.794 1093.64 350.182 1112.83 292.814 1128.41 C 266.304 1121.38 241.786 1110.68 220.646 1092.84 C 184.854 1062.65 166.189 1021.43 162.202 975.235 C 184.887 967.624 207.059 958.267 229.511 949.973 A 4248.2 4248.2 0 0 1 354.129 906.63 C 545.908 844.541 750.13 804.363 952.168 802.07 z"/>
<path transform="translate(0,0)" fill="rgb(36,33,34)" d="M 1232.83 672.416 C 1233.14 672.377 1233.45 672.327 1233.76 672.3 A 227.073 227.073 0 0 1 1396.03 722.144 C 1443.34 760.729 1474.09 815.692 1479.95 876.719 A 229.163 229.163 0 0 1 1428.68 1046.71 A 227.342 227.342 0 0 1 1273.76 1128.2 C 1273.42 1128.25 1273.09 1128.3 1272.75 1128.34 C 1215.3 1134.8 1153.79 1114.91 1109.22 1078.71 A 228.985 228.985 0 0 1 1025.24 923.656 A 229.406 229.406 0 0 1 1076.78 754.025 C 1116.07 706.485 1171.83 678.469 1232.83 672.416 z"/>
<path transform="translate(0,0)" fill="rgb(254,254,254)" d="M 1240.08 691.398 A 208.189 208.189 0 0 1 1388.75 741.453 A 208.692 208.692 0 0 1 1461.25 884.5 A 208.716 208.716 0 0 1 1410.82 1037.35 C 1372.98 1080.83 1321.54 1105.52 1264.25 1109.44 C 1263.84 1109.48 1263.44 1109.52 1263.03 1109.55 C 1211.03 1113.33 1157.25 1093.73 1117.74 1060.33 A 209.433 209.433 0 0 1 1044.15 916.995 A 209.215 209.215 0 0 1 1093.35 764.766 C 1130.91 720.742 1182.67 695.795 1240.08 691.398 z"/>
<path transform="translate(0,0)" fill="rgb(36,33,34)" d="M 1249.97 739.458 A 159.874 159.874 0 0 1 1361.2 781.547 A 160.305 160.305 0 0 1 1413.32 893.768 A 160.759 160.759 0 0 1 1369.99 1010.57 C 1340.27 1042.3 1300.47 1059.67 1257.21 1061.24 C 1215.57 1062.04 1176.26 1048.19 1145.17 1020.23 A 160.969 160.969 0 0 1 1092.08 908.346 A 160.385 160.385 0 0 1 1133.77 792.039 C 1164.58 758.247 1204.7 741.482 1249.97 739.458 z"/>
<path transform="translate(0,0)" fill="rgb(254,254,254)" d="M 1244.55 752.421 C 1281.34 749.256 1320.18 763.636 1348.12 787.212 A 148.156 148.156 0 0 1 1400.37 889.035 A 148.116 148.116 0 0 1 1365.14 996.676 A 146.977 146.977 0 0 1 1264.25 1048.09 A 146.683 146.683 0 0 1 1157.98 1014.28 A 148.569 148.569 0 0 1 1105.05 911.998 A 148.184 148.184 0 0 1 1140.2 804.083 C 1167.03 772.638 1203.74 755.751 1244.55 752.421 z"/>
<path transform="translate(0,0)" fill="rgb(254,254,254)" d="M 410.815 1112.46 C 586.835 1067.03 758.871 1038.72 940.794 1033.01 C 945.038 1044.55 951.06 1055.89 956.986 1066.66 A 331.708 331.708 0 0 0 1108.96 1207.21 A 327.541 327.541 0 0 0 1356.68 1216.97 A 331.196 331.196 0 0 0 1495.77 1119.67 C 1505.83 1107.7 1514.19 1094.81 1523.56 1082.36 C 1552.6 1085.76 1582.93 1094.59 1611.36 1101.7 A 2289.12 2289.12 0 0 1 1810.91 1161.77 C 1851.82 1176.08 1892.16 1191.77 1932.79 1206.85 C 1931.06 1223.01 1926.12 1239.38 1921.85 1255.03 C 1901.37 1330.22 1863.5 1427.5 1819.04 1491.64 C 1805.48 1497.9 1787.31 1517.48 1775.49 1528.01 A 841.296 841.296 0 0 1 1740.56 1557.63 A 829.589 829.589 0 0 1 1447.12 1710.06 A 834.541 834.541 0 0 1 807.22 1634.14 A 829.549 829.549 0 0 1 455.635 1243.34 C 437.084 1200.68 423.638 1157.08 410.815 1112.46 z"/>
<path transform="translate(0,0)" fill="rgb(240,62,56)" d="M 441.006 289.757 C 457.293 271.818 492.654 249.192 513.219 235.571 A 925.28 925.28 0 0 1 977.917 83.1533 A 926.488 926.488 0 0 1 1648.48 321.827 A 928.516 928.516 0 0 1 1954.01 961.992 A 543.137 543.137 0 0 1 1954.43 974.449 C 1887.63 947.777 1822.54 916.944 1755.54 890.792 A 1061.98 1061.98 0 0 0 1566.66 835.271 C 1545.54 747.662 1494.22 672.895 1416.92 625.459 A 330.737 330.737 0 0 0 1167.12 586.121 A 330.497 330.497 0 0 0 963.365 734.648 C 953.906 750.134 946.119 766.285 938.852 782.891 C 710.308 789.846 511.798 832.51 296.374 906.963 A 4008.15 4008.15 0 0 0 165.425 954.849 C 142.311 963.705 119.189 973.745 95.7722 981.701 C 97.9562 797.192 168.92 605.749 278.212 458.197 C 299.502 429.453 322.235 400.448 347.804 375.358 C 349.708 373.49 351.658 371.809 353.798 370.215 C 363.731 361.549 372.062 349.325 381.444 339.785 C 399.766 321.153 420.139 305.403 441.006 289.757 z"/>
<path transform="translate(0,0)" fill="rgb(254,254,254)" d="M 441.006 289.757 C 507.227 250.412 583.662 220.52 661.673 240.582 C 698.165 249.966 730.359 271.068 749.755 303.868 C 772.583 342.471 773.951 389.24 762.933 431.837 C 741.519 514.623 677.332 585.65 604.574 628.173 C 545.052 662.96 469.568 684.367 401.349 666.309 C 364.34 656.512 332.004 634.109 312.928 600.558 C 290.426 560.981 290.77 512.911 302.7 470.042 C 310.046 443.647 322.273 418.454 337.114 395.469 C 342.522 387.093 349.274 379.065 353.798 370.215 C 363.731 361.549 372.062 349.325 381.444 339.785 C 399.766 321.153 420.139 305.403 441.006 289.757 z"/>
</svg>