<svg version="1.1" xmlns="http://www.w3.org/2000/svg" style="display: block;" viewBox="0 0 1600 1200" width="400" height="300">
<defs>
	<linearGradient id="Gradient1" gradientUnits="userSpaceOnUse" x1="800.446" y1="372.671" x2="800.948" y2="241.228">
		<stop class="stop0" offset="0" stop-opacity="1" stop-color="rgb(236,66,70)"/>
		<stop class="stop1" offset="1" stop-opacity="1" stop-color="rgb(255,117,93)"/>
	</linearGradient>
	<linearGradient id="Gradient2" gradientUnits="userSpaceOnUse" x1="609.086" y1="330.981" x2="606.115" y2="477.124">
		<stop class="stop0" offset="0" stop-opacity="1" stop-color="rgb(34,135,221)"/>
		<stop class="stop1" offset="1" stop-opacity="1" stop-color="rgb(63,205,255)"/>
	</linearGradient>
	<linearGradient id="Gradient3" gradientUnits="userSpaceOnUse" x1="606.963" y1="348.919" x2="607.622" y2="405.505">
		<stop class="stop0" offset="0" stop-opacity="1" stop-color="rgb(52,165,248)"/>
		<stop class="stop1" offset="1" stop-opacity="1" stop-color="rgb(100,218,255)"/>
	</linearGradient>
</defs>
<path transform="translate(0,0)" fill="rgb(15,20,28)" d="M 1142.7 384.081 C 1148.63 383.999 1151.78 383.357 1156.57 379.693 C 1159.21 390.024 1159.33 401.761 1160.13 412.412 L 1155.77 410.734 L 1153.15 408.362 C 1154.15 403.274 1155.21 394.942 1152.93 390.179 C 1150.84 385.812 1146.9 385.484 1142.7 384.081 z"/>
<path transform="translate(0,0)" fill="rgb(227,57,59)" d="M 451.239 344.934 C 452.55 338.436 456.031 330.838 458.91 324.853 C 475.722 289.89 505.219 264.764 541.646 252.042 A 226.483 226.483 0 0 1 597.237 240.676 C 623.521 238.661 650.478 239.792 676.852 239.83 L 809.893 239.883 L 932.613 239.877 C 956.723 239.881 981.614 238.691 1005.61 240.995 C 1028.45 243.188 1052.38 248.263 1073.12 258.348 C 1103.01 272.882 1132.46 300.861 1143.58 332.779 C 1148.72 343.568 1151.34 354.405 1153.75 366.07 C 1154.59 370.12 1154.9 376.006 1156.57 379.693 C 1151.78 383.357 1148.63 383.999 1142.7 384.081 C 1106.51 383.548 1070.26 383.972 1034.07 384.019 C 1007.73 384.053 979.81 382.596 953.727 386.453 C 940.39 389.081 927.128 391.82 914.253 396.274 C 894.319 403.277 872.737 412.932 856.264 426.418 C 830.619 441.833 808.555 466.781 787.323 487.75 C 782.979 492.041 776.125 497.292 772.905 502.347 C 746.005 527.526 717.897 550.669 682.885 563.548 C 631.776 579.817 585.825 576.098 533.141 576.101 C 504.193 576.103 474.97 576.935 446.053 575.767 C 444.136 573.592 442.248 571.073 440.024 569.219 C 439.15 537.188 439.382 505.049 439.2 473.003 C 439.097 454.702 437.381 434.773 439.903 416.708 C 440.026 392.72 444.075 367.814 451.239 344.934 z"/>
<path transform="translate(0,0)" fill="rgb(139,245,106)" d="M 846.101 344.068 C 850.352 340.153 858.424 340.725 864.09 340.992 C 867.877 341.171 871.357 341.492 874.853 343.032 L 875.803 344.28 C 874.349 347.056 872.68 349.34 869.92 350.949 C 865.975 353.25 861.326 354.066 856.877 352.884 C 851.526 351.462 848.843 348.669 846.101 344.068 z"/>
<path transform="translate(0,0)" fill="rgb(105,208,92)" d="M 846.101 344.068 C 844.207 338.923 843.84 333.92 846.309 328.837 C 847.987 325.384 850.876 322.989 854.488 321.762 C 859.125 320.186 864.484 320.805 868.826 322.996 C 873.521 325.365 876.187 329.849 878.893 334.155 C 878.197 337.665 877.795 341.242 875.803 344.28 L 874.853 343.032 C 871.357 341.492 867.877 341.171 864.09 340.992 C 858.424 340.725 850.352 340.153 846.101 344.068 z"/>
<path transform="translate(0,0)" fill="rgb(139,245,106)" d="M 859.593 330.334 C 862.121 330.147 865.334 329.912 867.775 330.725 C 870.312 331.57 871.956 332.679 873.045 335.088 C 870.955 336.926 869.966 336.615 867.249 336.818 L 865.795 336.862 C 861.375 336.99 853.581 338.111 850.248 334.964 L 850.505 332.677 C 853.119 330.45 856.309 330.603 859.593 330.334 z"/>
<path transform="translate(0,0)" fill="rgb(254,197,19)" d="M 798.602 320.322 C 801.96 320.163 805.437 320.504 808.507 321.941 A 16.3141 16.3141 0 0 1 817.046 331.695 A 17.2962 17.2962 0 0 1 815.973 345.017 C 813.3 350.214 809.563 352.255 804.199 353.95 C 800.466 353.978 796.488 353.736 793.164 351.878 A 17.8528 17.8528 0 0 1 784.922 341.708 C 783.619 337.444 784.046 332.965 786.205 329.053 C 788.939 324.098 793.352 321.804 798.602 320.322 z"/>
<path transform="translate(0,0)" fill="rgb(152,7,22)" d="M 735.172 318.173 C 738.923 317.707 743.049 317.257 746.733 318.268 C 751.742 319.642 756.402 322.994 758.894 327.596 A 19.5092 19.5092 0 0 1 760.273 342.644 C 757.97 350.085 752.96 353.459 746.35 356.948 C 743.542 357.227 740.623 357.549 737.841 356.937 C 732.261 355.71 726.96 352.527 724.01 347.526 C 721.206 342.772 720.668 337.175 722.18 331.905 C 724.256 324.67 728.858 321.658 735.172 318.173 z"/>
<path transform="translate(0,0)" fill="rgb(255,104,87)" d="M 726.82 345.448 C 725.531 341.701 724.92 338.134 725.686 334.223 C 726.583 329.639 729.563 325.391 733.534 322.915 C 736.82 320.866 740.703 320.063 744.494 320.954 C 749.824 322.208 752.741 325.691 755.388 330.167 C 756.268 336.809 757.365 341.993 753 347.718 C 750.378 351.158 746.934 353.949 742.462 354.371 C 738.3 354.763 733.742 352.881 730.664 350.117 C 729.123 348.733 727.894 347.211 726.82 345.448 z"/>
<path transform="translate(0,0)" fill="rgb(255,136,117)" d="M 742.966 336.188 C 740.472 335.797 737.94 336.751 735.434 336.758 C 732.48 336.767 732.01 336.41 730.098 334.4 L 730.662 332.418 C 734.638 329.612 744.71 330.768 749.648 330.721 L 751.502 334.154 L 750.81 335.654 C 748.183 335.986 745.609 336.11 742.966 336.188 z"/>
<path transform="translate(0,0)" fill="rgb(211,39,52)" d="M 1143.58 332.779 C 1148.72 343.568 1151.34 354.405 1153.75 366.07 C 1154.59 370.12 1154.9 376.006 1156.57 379.693 C 1151.78 383.357 1148.63 383.999 1142.7 384.081 C 1106.51 383.548 1070.26 383.972 1034.07 384.019 C 1007.73 384.053 979.81 382.596 953.727 386.453 C 940.39 389.081 927.128 391.82 914.253 396.274 C 894.319 403.277 872.737 412.932 856.264 426.418 C 830.619 441.833 808.555 466.781 787.323 487.75 C 782.979 492.041 776.125 497.292 772.905 502.347 C 746.005 527.526 717.897 550.669 682.885 563.548 C 631.776 579.817 585.825 576.098 533.141 576.101 C 504.193 576.103 474.97 576.935 446.053 575.767 C 444.136 573.592 442.248 571.073 440.024 569.219 C 439.15 537.188 439.382 505.049 439.2 473.003 C 439.097 454.702 437.381 434.773 439.903 416.708 C 441.376 426.687 440.499 437.774 440.718 447.903 C 440.906 456.586 442.182 465.195 442.421 473.887 C 443.005 495.092 442.443 516.43 442.465 537.65 C 442.469 541.681 441.708 549.591 443.378 553.139 C 443.494 553.385 443.726 553.578 443.786 553.843 C 443.853 554.138 443.759 554.447 443.745 554.749 C 446.545 558.613 444.698 563.575 446.562 567.843 L 448.359 567.776 C 453.232 562.677 458.443 557.527 460.924 550.781 C 465.17 539.23 462.912 481.125 462.945 464.812 C 462.957 458.546 462.269 451.336 463.42 445.19 C 464.96 480.653 464.522 516.543 464.194 552.048 A 8043.28 8043.28 0 0 1 572.194 551.861 C 648.046 551.894 682.387 549.057 742.475 498.337 C 763.438 480.643 782.042 459.193 801.771 440.056 C 845.929 397.223 897.141 368.589 958.853 362.098 C 982.354 359.627 1005.95 359.988 1029.54 359.969 A 7527.8 7527.8 0 0 1 1129.2 360.207 A 1306.47 1306.47 0 0 0 1148.73 376.812 L 1150.63 375.811 C 1151.11 376.685 1150.86 376.772 1150.61 377.691 C 1156.35 372.283 1140.45 342.508 1143.36 333.378 C 1143.43 333.176 1143.5 332.978 1143.58 332.779 z"/>
<path transform="translate(0,0)" fill="url(#Gradient1)" d="M 451.239 344.934 C 452.55 338.436 456.031 330.838 458.91 324.853 C 475.722 289.89 505.219 264.764 541.646 252.042 A 226.483 226.483 0 0 1 597.237 240.676 C 623.521 238.661 650.478 239.792 676.852 239.83 L 809.893 239.883 L 932.613 239.877 C 956.723 239.881 981.614 238.691 1005.61 240.995 C 1028.45 243.188 1052.38 248.263 1073.12 258.348 C 1103.01 272.882 1132.46 300.861 1143.58 332.779 C 1143.5 332.978 1143.43 333.176 1143.36 333.378 C 1140.45 342.508 1156.35 372.283 1150.61 377.691 C 1150.86 376.772 1151.11 376.685 1150.63 375.811 L 1148.73 376.812 A 1306.47 1306.47 0 0 1 1129.2 360.207 C 1128.64 353.443 1123.97 344.872 1120.96 338.723 C 1106.41 309.091 1079.4 284.945 1048.12 274.311 C 1034.15 269.561 1019.24 266.846 1004.55 265.701 C 974.055 263.325 943.201 264.03 912.641 264.046 L 787.376 264.03 L 675.766 264.026 C 647.491 264.013 618.806 263.293 590.651 266.184 C 572.054 268.093 553.04 272.436 536.223 280.803 C 502.451 297.604 482.124 327.154 470.297 362.127 C 466.922 360.379 463.66 359.46 459.99 358.495 C 455.895 357.419 453.995 356.93 451.83 353.228 L 451.929 353.927 C 450.341 351.709 451.171 347.684 451.239 344.934 z"/>
<path transform="translate(0,0)" fill="rgb(206,220,227)" d="M 599.433 312.34 C 623.927 310.388 647.703 317.031 667.109 332.232 A 94.8867 94.8867 0 0 1 702.8 395.222 C 705.938 421.157 699.788 446.858 683.467 467.462 C 667.391 487.758 644.834 499.873 619.249 502.845 C 593.64 505.04 569.978 499.827 549.383 483.95 A 93.8311 93.8311 0 0 1 513.107 421.701 C 509.752 395.568 516.089 369.849 532.325 348.978 C 549.027 327.509 572.724 315.593 599.433 312.34 z"/>
<path transform="translate(0,0)" fill="url(#Gradient2)" d="M 529.882 404.435 A 77.5006 77.5006 0 0 1 554.712 350.901 A 78.6839 78.6839 0 0 1 610.87 329.952 A 80.3789 80.3789 0 0 1 666.466 356.107 C 678.176 369.107 687.136 389.253 686.225 407.137 C 686.204 407.565 686.165 407.992 686.123 408.419 A 76.8993 76.8993 0 0 1 664.255 462.176 C 654.935 471.75 642.917 479.264 629.931 482.626 C 626.465 483.654 623.007 484.531 619.436 485.119 C 600.777 488.188 580.376 483.678 565.007 472.572 C 560.193 470.591 555.162 465.82 551.593 462.144 C 536.614 446.715 529.74 425.591 529.882 404.435 z"/>
<path transform="translate(0,0)" fill="rgb(31,164,235)" d="M 529.882 404.435 L 530.242 405.42 C 532.239 411.034 532.258 416.672 533.395 422.433 C 536.72 439.28 545.772 458.598 561.935 466.531 C 582.644 476.696 610.939 480.997 632.867 473.093 C 637.248 471.514 641.53 469.236 645.646 467.075 C 647.672 467.194 647.955 466.976 649.477 468.435 C 646.021 472.378 639.142 472.735 636.117 476.737 C 637.525 477.418 638.202 477.912 639.831 477.47 C 651.941 474.179 672.067 449.878 677.405 438.484 C 682.034 428.604 682.739 418.518 686.123 408.419 A 76.8993 76.8993 0 0 1 664.255 462.176 C 654.935 471.75 642.917 479.264 629.931 482.626 C 626.465 483.654 623.007 484.531 619.436 485.119 C 600.777 488.188 580.376 483.678 565.007 472.572 C 560.193 470.591 555.162 465.82 551.593 462.144 C 536.614 446.715 529.74 425.591 529.882 404.435 z"/>
<path transform="translate(0,0)" fill="url(#Gradient3)" d="M 600.183 347.05 C 600.585 347.023 600.988 347.004 601.39 346.99 C 615.856 346.482 628.799 349.59 639.508 359.774 C 649.28 369.066 656.159 382.883 656.347 396.521 C 656.398 400.232 655.8 403.125 653.106 405.848 C 644.24 410.08 628.295 404.945 619.082 403.125 C 613.494 402.903 607.828 402.618 602.251 403.089 C 592.359 403.923 572.874 409.897 564.175 406.011 C 561.964 405.024 560.39 403.09 559.726 400.742 C 557.389 392.473 562.689 378.752 566.939 371.733 A 54.1478 54.1478 0 0 1 600.183 347.05 z"/>
<path transform="translate(0,0)" fill="rgb(211,39,52)" d="M 953.727 386.453 C 979.81 382.596 1007.73 384.053 1034.07 384.019 C 1070.26 383.972 1106.51 383.548 1142.7 384.081 C 1146.9 385.484 1150.84 385.812 1152.93 390.179 C 1155.21 394.942 1154.15 403.274 1153.15 408.362 L 1155.77 410.734 L 1160.13 412.412 A 1246.47 1246.47 0 0 0 1160.19 437.648 C 1161.84 456.033 1160.81 475.346 1160.78 493.829 L 1160.63 593.975 L 1160.67 717.627 C 1160.67 741.147 1161.61 765.152 1159.92 788.592 C 1160.24 811.49 1155.65 840.567 1146.55 861.742 C 1140.84 877.219 1131.67 892.783 1120.3 904.776 C 1107.1 920.076 1081.12 941.767 1061.25 946.616 C 1042.19 954.433 1019.81 957.581 999.404 959.214 C 960.422 962.333 914.13 960.233 874.305 960.215 L 649.739 960.17 C 591.351 960.024 530.856 957.442 487.2 913.335 C 470.545 896.509 457.876 876.851 450.553 854.255 C 435.812 808.775 439.351 757.463 439.481 710.164 L 439.949 605.711 C 440.454 593.543 440.211 581.392 440.024 569.219 C 442.248 571.073 444.136 573.592 446.053 575.767 C 474.97 576.935 504.193 576.103 533.141 576.101 C 585.825 576.098 631.776 579.817 682.885 563.548 C 717.897 550.669 746.005 527.526 772.905 502.347 C 776.125 497.292 782.979 492.041 787.323 487.75 C 808.555 466.781 830.619 441.833 856.264 426.418 C 872.737 412.932 894.319 403.277 914.253 396.274 C 927.128 391.82 940.39 389.081 953.727 386.453 z"/>
<path transform="translate(0,0)" fill="rgb(254,197,19)" d="M 515.873 707.053 C 526.821 709.31 559.466 746.154 567.897 755.962 C 559.964 765.669 550.406 774.295 541.5 783.111 C 536.254 788.686 524.975 803.161 517.516 803.946 C 515.649 804.142 515.204 803.551 513.791 802.502 C 512.922 800.923 512.459 799.409 512.312 797.621 C 511.145 783.396 511.901 768.481 511.828 754.189 C 511.763 741.28 510.156 725.816 512.541 713.136 C 513.016 710.613 514.236 708.949 515.873 707.053 z"/>
<path transform="translate(0,0)" fill="rgb(171,18,42)" d="M 717.292 864.16 C 736.032 863.45 883.656 861.725 891.643 866.302 C 893.49 867.36 894.685 869.54 895.285 871.506 C 896.359 875.021 896.389 879.432 894.514 882.667 C 892.585 885.993 889.32 886.936 885.902 888.026 L 786.672 888.157 C 769.262 888.165 722.721 890.656 708.955 886.154 C 706.583 883.753 704.402 881.027 703.719 877.623 C 703.092 874.492 704.163 871.452 706.141 869.025 C 709.236 865.226 712.751 864.724 717.292 864.16 z"/>
<path transform="translate(0,0)" fill="rgb(171,18,42)" d="M 1138.4 433.044 C 1141.52 429.279 1151.01 417.49 1155.17 416.455 C 1161.24 422.749 1158.16 506.396 1159.18 521.369 C 1160.9 493.549 1158.31 465.452 1160.19 437.648 C 1161.84 456.033 1160.81 475.346 1160.78 493.829 L 1160.63 593.975 L 1160.67 717.627 C 1160.67 741.147 1161.61 765.152 1159.92 788.592 C 1160.24 811.49 1155.65 840.567 1146.55 861.742 C 1140.84 877.219 1131.67 892.783 1120.3 904.776 C 1107.1 920.076 1081.12 941.767 1061.25 946.616 C 1042.19 954.433 1019.81 957.581 999.404 959.214 C 960.422 962.333 914.13 960.233 874.305 960.215 L 649.739 960.17 C 591.351 960.024 530.856 957.442 487.2 913.335 C 470.545 896.509 457.876 876.851 450.553 854.255 C 435.812 808.775 439.351 757.463 439.481 710.164 L 439.949 605.711 C 441.567 604.747 442.663 603.724 443.943 602.347 C 447.98 610.302 457.236 617.665 463.575 623.907 C 465.765 661.063 464.03 699.2 464.038 736.457 C 464.049 785.843 461.401 842.378 493.633 883.517 C 516.571 912.793 547.824 928.402 584.397 932.849 C 616.826 936.792 649.95 935.807 682.559 935.807 L 807.836 935.867 L 925.953 935.897 C 957.985 935.889 990.813 937.153 1022.51 931.868 C 1044.98 928.121 1066.29 919.972 1084.3 905.772 C 1105.31 889.21 1119.67 868.051 1127.16 842.447 C 1137.72 806.347 1135.85 767.495 1135.89 730.249 L 1135.96 648.847 L 1137.43 498.94 C 1137.71 477.527 1135.59 455.081 1138.29 433.848 L 1138.4 433.044 z"/>
<path transform="translate(0,0)" fill="rgb(152,7,22)" d="M 1147.2 842.656 C 1148.56 844.632 1149.87 845.937 1149.47 848.512 C 1148.78 853.074 1144.29 857.105 1146.55 861.742 C 1140.84 877.219 1131.67 892.783 1120.3 904.776 C 1107.1 920.076 1081.12 941.767 1061.25 946.616 C 1059.07 946.565 1055.75 946.04 1053.69 946.507 C 1053.34 946.586 1053.02 946.758 1052.68 946.884 L 1051.96 945.541 L 1052.6 945.389 L 1051.53 945.975 C 1056.25 941.991 1065.91 940.016 1071.76 937.254 C 1090.36 928.479 1106.61 913.454 1119.89 898.038 C 1134.21 877.246 1139.77 866.658 1147.2 842.656 z"/>
<path transform="translate(0,0)" fill="rgb(25,38,45)" d="M 953.727 386.453 C 979.81 382.596 1007.73 384.053 1034.07 384.019 C 1070.26 383.972 1106.51 383.548 1142.7 384.081 C 1146.9 385.484 1150.84 385.812 1152.93 390.179 C 1155.21 394.942 1154.15 403.274 1153.15 408.362 L 1155.77 410.734 C 1154.13 417.559 1141.13 427.385 1135.93 432.18 C 1099.33 433.14 1062.71 432.372 1026.11 432.383 C 1000.43 432.391 970.747 430.588 945.82 437.094 C 830.769 467.122 801.103 591.145 663.929 618.771 C 627.848 626.037 590.064 624.162 553.418 624.19 C 523.495 624.214 493.481 624.761 463.575 623.907 C 457.236 617.665 447.98 610.302 443.943 602.347 C 442.663 603.724 441.567 604.747 439.949 605.711 C 440.454 593.543 440.211 581.392 440.024 569.219 C 442.248 571.073 444.136 573.592 446.053 575.767 C 474.97 576.935 504.193 576.103 533.141 576.101 C 585.825 576.098 631.776 579.817 682.885 563.548 C 717.897 550.669 746.005 527.526 772.905 502.347 C 776.125 497.292 782.979 492.041 787.323 487.75 C 808.555 466.781 830.619 441.833 856.264 426.418 C 872.737 412.932 894.319 403.277 914.253 396.274 C 927.128 391.82 940.39 389.081 953.727 386.453 z"/>
<path transform="translate(0,0)" fill="rgb(15,20,28)" d="M 914.253 396.274 C 927.128 391.82 940.39 389.081 953.727 386.453 L 958.523 387.224 L 958.336 388.142 L 954.673 388.71 L 954.154 389.714 C 938.991 393.879 924.566 396.979 909.682 402.543 C 911.066 400.384 912.729 398.341 914.253 396.274 z"/>
<path transform="translate(0,0)" fill="rgb(15,20,28)" d="M 856.264 426.418 C 872.737 412.932 894.319 403.277 914.253 396.274 C 912.729 398.341 911.066 400.384 909.682 402.543 C 899.618 406.545 863.053 426.894 856.264 426.418 z"/>
<path transform="translate(0,0)" fill="rgb(15,20,28)" d="M 772.905 502.347 C 772.831 507.233 764.836 515.13 761.273 518.588 C 748.614 530.879 705.818 564.751 688.581 564.573 C 686.672 564.553 684.723 564.028 682.885 563.548 C 717.897 550.669 746.005 527.526 772.905 502.347 z"/>
<path transform="translate(0,0)" fill="rgb(227,57,59)" d="M 443.943 602.347 C 456.668 597.4 494.755 599.934 510.368 599.955 L 584.081 600.037 C 660.656 600.015 707.131 591.581 767.141 539.994 C 789.79 520.524 809.979 498.361 831.685 477.88 C 904.171 409.485 944.104 408.041 1039.18 407.992 C 1077.13 407.972 1115.22 407.245 1153.15 408.362 L 1155.77 410.734 C 1154.13 417.559 1141.13 427.385 1135.93 432.18 C 1099.33 433.14 1062.71 432.372 1026.11 432.383 C 1000.43 432.391 970.747 430.588 945.82 437.094 C 830.769 467.122 801.103 591.145 663.929 618.771 C 627.848 626.037 590.064 624.162 553.418 624.19 C 523.495 624.214 493.481 624.761 463.575 623.907 C 457.236 617.665 447.98 610.302 443.943 602.347 z"/>
</svg>