<svg version="1.1" xmlns="http://www.w3.org/2000/svg" style="display: block;" viewBox="0 0 1600 1600" width="400" height="400">
<defs>
	<linearGradient id="Gradient1" gradientUnits="userSpaceOnUse" x1="923.604" y1="1564.4" x2="758.512" y2="929.852">
		<stop class="stop0" offset="0" stop-opacity="1" stop-color="rgb(174,174,173)"/>
		<stop class="stop1" offset="1" stop-opacity="1" stop-color="rgb(223,223,223)"/>
	</linearGradient>
</defs>
<path transform="translate(0,0)" fill="rgb(5,5,5)" d="M 0 0 L 749.634 0 L 848.824 0 L 1600 0 L 1600 752.368 L 1600 872.434 L 1600 1600 L 851.763 1600 L 749.509 1600 L 0 1600 L 0 851.628 L 0 748.374 L 0 0 z M 848.824 0 C 849.151 0.0963219 849.477 0.198106 849.805 0.288966 C 867.869 5.28283 888.845 4.50769 907.52 7.07644 A 809.172 809.172 0 0 1 1009.8 28.0528 A 796.698 796.698 0 0 1 1491.39 397.328 A 801.494 801.494 0 0 1 1587.62 658.402 C 1591.01 677.543 1593.22 696.685 1595.27 716.003 C 1596.5 727.587 1596.55 741.347 1600 752.368 L 1600 0 L 848.824 0 z M 0 0 L 0 748.374 C 5.02847 736.092 5.04027 710.975 6.62792 697.113 C 8.20943 683.304 10.5427 669.534 12.9575 655.849 A 800.337 800.337 0 0 1 92.8692 425.677 A 799.209 799.209 0 0 1 578.459 31.0495 A 841.71 841.71 0 0 1 688.2 7.66355 C 704.205 5.35864 735.694 4.55997 748.808 0.28893 C 749.085 0.198602 749.359 0.09631 749.634 0 L 0 0 z M 0 851.628 L 0 1600 L 749.509 1600 C 739.426 1597.16 728.438 1596.81 718.024 1595.67 C 700.071 1593.7 682.094 1591.83 664.294 1588.73 A 798.829 798.829 0 0 1 438.627 1513.89 A 807.252 807.252 0 0 1 29.3478 1018.66 A 774.152 774.152 0 0 1 7.66633 911.402 C 5.37925 894.445 5.48996 867.543 0.288738 852.413 C 0.198025 852.149 0.0962461 851.889 0 851.628 z M 851.763 1600 L 1600 1600 L 1600 872.434 C 1599.9 872.706 1599.79 872.977 1599.7 873.25 C 1593.37 891.267 1593.01 913.732 1590.02 932.684 C 1585.25 962.891 1578.28 993.788 1569.21 1022.99 C 1501.17 1242.16 1356.95 1417.39 1150.54 1519.21 A 799.91 799.91 0 0 1 933.181 1589.29 C 915.325 1592.36 897.168 1593.9 879.168 1595.91 C 870.45 1596.89 859.981 1596.99 851.763 1600 z"/>
<path transform="translate(0,0)" fill="rgb(58,58,59)" d="M 300.227 950.653 C 312.339 954.316 336.117 962.402 346.671 968.608 C 338.227 980.508 330.665 992.546 323.714 1005.37 C 315.864 1002.03 307.337 1000.06 299.099 997.891 C 301.65 992.266 300.046 959.036 300.227 950.653 z"/>
<path transform="translate(0,0)" fill="rgb(58,58,59)" d="M 31.5102 718.176 C 39.2355 729.916 53.6207 753.957 62.8149 763.125 C 64.2067 764.513 66.0861 765.29 67.8878 765.996 L 68.7373 767.432 L 69.3571 772.306 C 68.3824 798.724 68.7751 825.243 68.8569 851.677 C 68.8934 863.478 70.0242 876.516 68.6733 888.18 C 54.9619 880.994 43.0735 870.695 29.3659 863.522 C 25.6155 820.435 24.3526 760.839 31.5102 718.176 z"/>
<path transform="translate(0,0)" fill="rgb(58,58,59)" d="M 759.105 984.702 C 788.521 978.884 814.928 967.347 843.078 957.717 C 844.781 959.613 844.181 964.614 844.269 967.258 C 843.168 1002.1 841.229 1037.14 841.485 1072 A 1744.3 1744.3 0 0 1 793.626 1074.14 C 790.401 1042.65 774.008 1011.99 759.105 984.702 z"/>
<path transform="translate(0,0)" fill="rgb(201,128,0)" d="M 69.3571 772.306 C 71.9156 776.99 83.9589 788.266 88.1595 792.951 A 637.764 637.764 0 0 0 264.561 931.338 C 275.663 937.242 288.012 944.844 299.966 948.732 L 300.227 950.653 C 300.046 959.036 301.65 992.266 299.099 997.891 C 224.861 974.389 165.429 946.868 98.7306 907.216 C 89.3069 901.614 76.224 896.041 68.6733 888.18 C 70.0242 876.516 68.8934 863.478 68.8569 851.677 C 68.7751 825.243 68.3824 798.724 69.3571 772.306 z"/>
<path transform="translate(0,0)" fill="rgb(247,247,247)" d="M 526.917 949.403 C 527.115 949.375 527.312 949.338 527.512 949.318 A 169.985 169.985 0 0 1 651.238 986.344 A 171.105 171.105 0 0 1 713.897 1100.81 A 170.728 170.728 0 0 1 676.573 1227.17 A 171.179 171.179 0 0 1 560.242 1289.5 C 560.005 1289.55 559.772 1289.62 559.533 1289.65 C 517.662 1295.08 471.412 1279.67 438.481 1253.95 A 169.767 169.767 0 0 1 374.275 1140.16 A 171.135 171.135 0 0 1 410.254 1012.69 C 439.256 976.25 480.866 954.552 526.917 949.403 z"/>
<path transform="translate(0,0)" fill="rgb(5,5,5)" d="M 524.748 1014.43 C 549.061 1011.9 575.549 1020.82 594.941 1035.14 A 109.429 109.429 0 0 1 637.946 1106.23 A 108.994 108.994 0 0 1 617.124 1188.33 C 597.816 1213.78 571.077 1226.75 539.967 1230.91 C 509.847 1231.61 483.748 1225.44 460.235 1205.47 A 107.672 107.672 0 0 1 422.418 1131.28 A 108.257 108.257 0 0 1 449.005 1050.93 C 468.702 1028.34 495.205 1016.62 524.748 1014.43 z"/>
<path transform="translate(0,0)" fill="rgb(247,247,247)" d="M 521.28 1041.34 C 541.226 1039.89 559.468 1043.32 576.26 1054.64 A 82.1003 82.1003 0 0 1 610.971 1107.53 A 81.7123 81.7123 0 0 1 597.736 1169.5 C 583.855 1189.46 564.449 1199.57 540.965 1203.84 C 520.17 1206.12 499.427 1201.4 482.394 1188.97 A 81.405 81.405 0 0 1 449.703 1134.87 A 82.4576 82.4576 0 0 1 465.433 1072.92 C 479.222 1054.86 498.999 1044.46 521.28 1041.34 z"/>
<path transform="translate(0,0)" fill="rgb(58,58,59)" d="M 1460.58 398.672 C 1475.26 420.221 1487.47 445.585 1498.62 469.05 A 776.023 776.023 0 0 1 1571.4 856.245 C 1549.11 876.709 1521.69 893.392 1496.07 909.396 C 1401.89 968.207 1299.02 1006.05 1191 1030.14 C 1167.48 1035.38 1143.53 1038.52 1119.94 1043.42 C 1119.7 1042.41 1119.5 1041.48 1119.38 1040.44 C 1116.77 1016.94 1118.44 991.32 1118.89 967.682 C 1121.96 805.846 1172.85 640.7 1277.42 515.406 C 1324.58 458.893 1384.16 405.53 1460.58 398.672 z"/>
<path transform="translate(0,0)" fill="url(#Gradient1)" d="M 749.268 1267 A 3117.45 3117.45 0 0 0 961.35 1258.93 C 1037.7 1253.58 1115.28 1247.01 1190.18 1230.61 C 1269.9 1213.15 1349.45 1182.48 1421.66 1144.65 C 1452.05 1128.73 1495.45 1105.78 1519.7 1082.18 A 306.851 306.851 0 0 1 1515.67 1092.25 A 776.02 776.02 0 0 1 1099.41 1512.73 A 772.048 772.048 0 0 1 503.691 1513.97 C 365.847 1456.97 250.99 1361.44 165.036 1240.19 C 144.114 1210.67 119.464 1172.54 105.578 1139.09 C 97.8715 1124.61 91.9603 1109.43 85.0974 1094.57 C 97.9626 1102.74 112.005 1109.44 125.582 1116.35 A 2948.55 2948.55 0 0 0 193.648 1149.81 C 204.778 1155.1 218.768 1159.58 229.004 1166.18 C 255.334 1177.43 281.833 1190.46 308.944 1199.57 C 335.173 1261.99 361.943 1298.17 419.454 1335.2 L 427.998 1339.86 A 250.225 250.225 0 0 0 596.576 1365.18 C 655.201 1352.88 715.969 1317.96 749.268 1267 z"/>
<path transform="translate(0,0)" fill="rgb(209,209,210)" d="M 85.0974 1094.57 C 97.9626 1102.74 112.005 1109.44 125.582 1116.35 A 2948.55 2948.55 0 0 0 193.648 1149.81 C 204.778 1155.1 218.768 1159.58 229.004 1166.18 C 227.516 1166.63 226.126 1167.08 224.676 1167.64 C 222.207 1168.6 219.401 1168.61 216.806 1169.11 C 208.23 1170.75 202.804 1176.85 198.552 1183.99 C 197.782 1193.89 198.673 1203.36 200.049 1213.16 L 199.472 1214.58 C 195.739 1208.98 196.38 1195.41 196.875 1188.89 C 197.773 1177.07 204.471 1174.59 212.061 1167.64 C 213.801 1166.04 213.821 1165.87 213.968 1163.62 C 211.606 1160.82 208.71 1159.29 205.529 1157.57 C 185.455 1146.67 163.788 1137.8 143.248 1127.71 C 128.399 1120.42 114.023 1111.47 98.798 1105.04 C 95.9786 1103.85 94.6186 1103.35 91.8063 1104.57 C 93.8154 1115.02 105.956 1128.62 105.633 1138.4 C 105.625 1138.63 105.597 1138.86 105.578 1139.09 C 97.8715 1124.61 91.9603 1109.43 85.0974 1094.57 z"/>
<path transform="translate(0,0)" fill="rgb(247,247,247)" d="M 198.552 1183.99 C 202.804 1176.85 208.23 1170.75 216.806 1169.11 C 219.401 1168.61 222.207 1168.6 224.676 1167.64 C 226.126 1167.08 227.516 1166.63 229.004 1166.18 C 255.334 1177.43 281.833 1190.46 308.944 1199.57 C 335.173 1261.99 361.943 1298.17 419.454 1335.2 L 427.998 1339.86 C 426.501 1343.33 424.016 1347.48 424.216 1351.31 L 423.848 1351.78 C 424.621 1366.44 425.492 1374.98 415.584 1386.89 C 413.334 1387.99 411.065 1388.94 408.666 1389.68 C 387.712 1396.14 361.499 1384.75 343.039 1375.06 C 293.376 1348.99 236.685 1292.42 211.338 1242.44 C 206.535 1232.97 203.177 1223.26 200.049 1213.16 C 198.673 1203.36 197.782 1193.89 198.552 1183.99 z"/>
<path transform="translate(0,0)" fill="rgb(209,209,210)" d="M 419.454 1335.2 L 427.998 1339.86 C 426.501 1343.33 424.016 1347.48 424.216 1351.31 L 423.848 1351.78 C 423.579 1351.39 423.468 1350.91 423.307 1350.46 C 421.594 1345.71 418.426 1340.32 419.454 1335.2 z"/>
<path transform="translate(0,0)" fill="rgb(242,201,0)" d="M 71.6376 543.881 C 78.2701 511.806 106.69 456.431 122.818 427.161 A 776.3 776.3 0 0 1 588.612 56.2232 A 772.069 772.069 0 0 1 1177.28 125.371 A 775.723 775.723 0 0 1 1423.44 343.221 C 1436.42 360.878 1450.04 379.437 1460.58 398.672 C 1384.16 405.53 1324.58 458.893 1277.42 515.406 C 1172.85 640.7 1121.96 805.846 1118.89 967.682 C 1118.44 991.32 1116.77 1016.94 1119.38 1040.44 C 1119.5 1041.48 1119.7 1042.41 1119.94 1043.42 C 1065.32 1051.25 1010.87 1058.38 955.898 1063.37 C 917.805 1066.83 879.534 1068.54 841.485 1072 C 841.229 1037.14 843.168 1002.1 844.269 967.258 C 844.181 964.614 844.781 959.613 843.078 957.717 C 814.928 967.347 788.521 978.884 759.105 984.702 C 743.142 962.021 726.147 941.528 704.489 924.025 A 250.321 250.321 0 0 0 519.287 870.259 C 448.844 877.979 390.588 913.911 346.671 968.608 C 336.117 962.402 312.339 954.316 300.227 950.653 L 299.966 948.732 C 288.012 944.844 275.663 937.242 264.561 931.338 A 637.764 637.764 0 0 1 88.1595 792.951 C 83.9589 788.266 71.9156 776.99 69.3571 772.306 L 68.7373 767.432 L 67.8878 765.996 C 66.0861 765.29 64.2067 764.513 62.8149 763.125 C 53.6207 753.957 39.2355 729.916 31.5102 718.176 C 34.3629 663.617 52.2352 594.906 71.6376 543.881 z"/>
<path transform="translate(0,0)" fill="rgb(88,89,81)" d="M 31.5102 718.176 C 34.3629 663.617 52.2352 594.906 71.6376 543.881 C 74.6669 564.153 71.1028 595.283 70.6381 616.948 L 68.7373 767.432 L 67.8878 765.996 C 66.0861 765.29 64.2067 764.513 62.8149 763.125 C 53.6207 753.957 39.2355 729.916 31.5102 718.176 z"/>
<path transform="translate(0,0)" fill="rgb(201,128,0)" d="M 1177.28 125.371 A 775.723 775.723 0 0 1 1423.44 343.221 C 1436.42 360.878 1450.04 379.437 1460.58 398.672 C 1384.16 405.53 1324.58 458.893 1277.42 515.406 C 1172.85 640.7 1121.96 805.846 1118.89 967.682 C 1118.44 991.32 1116.77 1016.94 1119.38 1040.44 C 1119.5 1041.48 1119.7 1042.41 1119.94 1043.42 C 1065.32 1051.25 1010.87 1058.38 955.898 1063.37 C 917.805 1066.83 879.534 1068.54 841.485 1072 C 841.229 1037.14 843.168 1002.1 844.269 967.258 L 845.005 956.13 C 862.179 952.582 924.21 916.924 940.371 906.77 C 1162.35 767.298 1281.73 508.421 1219.96 249.856 A 570.988 570.988 0 0 0 1191.45 162.041 C 1189.12 156.371 1176.84 132.716 1176.33 129.509 C 1176.2 128.686 1177.07 126.301 1177.28 125.371 z"/>
<path transform="translate(0,0)" fill="rgb(88,89,81)" d="M 494.437 256.679 C 548.858 212.151 612.425 194.614 681.113 185.59 C 707.47 182.128 733.115 179.435 759.686 182.097 C 814.226 187.561 880.114 201.723 916.508 246.423 C 928.415 261.048 944.239 289.671 946.984 308.602 C 947.998 315.594 947.026 323.058 946.265 330.047 C 941.666 372.253 932.356 413.81 922.966 455.152 C 909.373 515.001 894.166 574.516 880.97 634.447 C 874.747 662.705 868.262 691.288 863.76 719.881 C 858.218 755.077 855.188 790.462 852.306 825.95 C 848.796 869.174 845.917 912.771 845.005 956.13 L 844.269 967.258 C 844.181 964.614 844.781 959.613 843.078 957.717 C 814.928 967.347 788.521 978.884 759.105 984.702 C 743.142 962.021 726.147 941.528 704.489 924.025 A 250.321 250.321 0 0 0 519.287 870.259 C 448.844 877.979 390.588 913.911 346.671 968.608 C 336.117 962.402 312.339 954.316 300.227 950.653 L 299.966 948.732 C 301.69 917.177 301.962 885.453 303.24 853.861 A 3463.57 3463.57 0 0 1 313.026 699.013 A 2826.15 2826.15 0 0 1 324.33 596.878 C 326.93 577.544 330.788 558.003 332.458 538.597 C 321.321 523.253 313.513 499.429 310.609 481.083 C 303.099 433.645 318.46 381.807 346.606 343.396 C 378.908 299.316 425.78 274.215 479.115 265.847 C 484.742 264.039 489.635 260.049 494.437 256.679 z"/>
<path transform="translate(0,0)" fill="rgb(129,129,128)" d="M 494.437 256.679 C 500.615 259.613 508.194 259.118 514.911 259.963 C 524.461 261.165 546.238 264.317 553.647 269.643 L 554.136 271.186 C 552.69 270.973 551.735 270.563 550.464 269.902 C 547.26 268.233 544.07 266.106 540.313 267.232 C 539.821 267.379 539.338 267.558 538.851 267.72 L 538.493 265.717 C 538.337 267.47 538.264 268.266 539.182 269.799 C 546.015 274.342 553.936 273.815 559.251 280.577 C 545.997 275.581 532.864 271.443 518.851 269.15 C 507.99 267.373 488.062 270.548 479.115 265.847 C 484.742 264.039 489.635 260.049 494.437 256.679 z"/>
<path transform="translate(0,0)" fill="rgb(129,129,128)" d="M 601.79 535.167 C 588.684 563.134 572.456 578.287 544.046 591.372 C 539.385 593.518 534.639 596.36 529.841 598.103 C 528.633 598.542 527.577 598.653 526.31 598.796 C 530.839 594.322 538.733 593.638 543.074 589.051 C 540.421 588.133 537.376 588.883 534.889 590.027 C 527.47 593.438 523.622 597.731 514.754 597.359 C 550.127 580.602 574.879 563.861 601.79 535.167 z"/>
<path transform="translate(0,0)" fill="rgb(247,247,247)" d="M 332.458 538.597 C 321.321 523.253 313.513 499.429 310.609 481.083 C 303.099 433.645 318.46 381.807 346.606 343.396 C 378.908 299.316 425.78 274.215 479.115 265.847 C 488.062 270.548 507.99 267.373 518.851 269.15 C 532.864 271.443 545.997 275.581 559.251 280.577 C 596.728 299.296 622.62 328.946 635.892 368.901 C 650.555 413.041 643.688 460.048 622.899 500.871 A 273.695 273.695 0 0 1 601.79 535.167 C 574.879 563.861 550.127 580.602 514.754 597.359 C 487.754 605.534 460.873 609.573 432.741 605.331 C 403.303 600.893 372.536 584.334 351.923 563.063 C 344.642 555.549 338.613 547.028 332.458 538.597 z"/>
</svg>